<?xml version="1.0" encoding="UTF-8"?>
<svg xmlns="http://www.w3.org/2000/svg" xmlns:xlink="http://www.w3.org/1999/xlink" width="92px" height="81px" viewBox="0 0 92 81" version="1.1">
<g id="surface1">
<path style=" stroke:none;fill-rule:nonzero;fill:rgb(0%,0%,0%);fill-opacity:1;" d="M 5.75 39.234375 L 17.25 39.234375 L 17.25 36.703125 L 5.75 36.703125 L 5.75 29.980469 L 19.203125 25.421875 L 18.171875 23.058594 L 3.796875 27.929688 C 3.242188 28.117188 2.875 28.585938 2.875 29.109375 L 2.875 41.765625 L 5.75 41.765625 Z M 86.25 45.5625 L 69 45.5625 C 68.207031 45.5625 67.5625 46.128906 67.5625 46.828125 L 67.5625 56.953125 C 67.5625 57.652344 68.207031 58.21875 69 58.21875 L 86.25 58.21875 L 86.25 71.5625 L 69.515625 65.898438 C 69.1875 65.785156 68.824219 65.785156 68.496094 65.894531 L 53.1875 70.945312 L 53.1875 64.546875 C 53.1875 64.109375 52.933594 63.703125 52.511719 63.472656 L 41.011719 57.144531 C 40.785156 57.019531 40.519531 56.953125 40.25 56.953125 L 34.5 56.953125 C 33.707031 56.953125 33.0625 57.519531 33.0625 58.21875 L 33.0625 69.046875 L 24.4375 66.199219 L 24.4375 58.21875 C 24.4375 57.519531 23.792969 56.953125 23 56.953125 L 5.75 56.953125 L 5.75 49.359375 L 28.75 49.359375 C 29.542969 49.359375 30.1875 48.792969 30.1875 48.09375 L 30.1875 41.765625 L 27.3125 41.765625 L 27.3125 46.828125 L 5.75 46.828125 L 5.75 44.296875 L 2.875 44.296875 L 2.875 74.671875 C 2.875 75.101562 3.125 75.503906 3.539062 75.738281 C 3.949219 75.96875 4.46875 76 4.914062 75.820312 L 23.058594 68.449219 L 45.496094 75.855469 C 45.820312 75.964844 46.179688 75.964844 46.503906 75.855469 L 68.992188 68.433594 L 87.171875 74.585938 C 87.613281 74.738281 88.109375 74.6875 88.5 74.449219 C 88.890625 74.214844 89.125 73.824219 89.125 73.40625 L 89.125 43.03125 L 86.25 43.03125 Z M 5.75 59.484375 L 21.5625 59.484375 L 21.5625 66.269531 L 5.75 72.695312 Z M 46 73.320312 L 35.9375 69.996094 L 35.9375 59.484375 L 39.835938 59.484375 L 50.3125 65.25 L 50.3125 71.894531 Z M 70.4375 55.6875 L 70.4375 48.09375 L 86.25 48.09375 L 86.25 55.6875 Z M 70.4375 55.6875 "/>
<path style=" stroke:none;fill-rule:nonzero;fill:rgb(0%,0%,0%);fill-opacity:1;" d="M 88.203125 27.929688 L 69.515625 21.601562 C 69.214844 21.496094 68.878906 21.488281 68.570312 21.574219 L 46 27.785156 L 42.117188 26.714844 L 41.257812 29.128906 L 45.570312 30.316406 C 45.851562 30.394531 46.148438 30.394531 46.429688 30.316406 L 56.0625 27.667969 L 56.0625 53.324219 L 45.359375 47.039062 C 45.125 46.902344 44.847656 46.828125 44.5625 46.828125 L 41.6875 46.828125 L 41.6875 41.765625 L 38.8125 41.765625 L 38.8125 48.09375 C 38.8125 48.792969 39.457031 49.359375 40.25 49.359375 L 44.128906 49.359375 L 56.703125 56.742188 C 57.144531 57 57.710938 57.023438 58.179688 56.804688 C 58.644531 56.582031 58.9375 56.152344 58.9375 55.6875 L 58.9375 26.875 L 67.5625 24.503906 L 67.5625 36.703125 C 67.5625 37.402344 68.207031 37.96875 69 37.96875 L 86.25 37.96875 L 86.25 40.5 L 89.125 40.5 L 89.125 29.109375 C 89.125 28.585938 88.757812 28.117188 88.203125 27.929688 Z M 70.4375 35.4375 L 70.4375 24.625 L 86.25 29.980469 L 86.25 35.4375 Z M 70.4375 35.4375 "/>
<path style=" stroke:none;fill-rule:nonzero;fill:rgb(0%,0%,0%);fill-opacity:1;" d="M 26.058594 29.695312 C 22.382812 30.535156 20.125 32.1875 20.125 34.171875 C 20.125 35.070312 20.621094 36.765625 23.945312 38.019531 C 26.019531 38.804688 28.746094 39.234375 31.625 39.234375 C 34.503906 39.234375 37.230469 38.804688 39.304688 38.019531 C 42.628906 36.765625 43.125 35.070312 43.125 34.171875 C 43.125 32.167969 40.90625 30.53125 37.195312 29.695312 C 37.621094 29.257812 38.058594 28.800781 38.496094 28.316406 C 42.523438 23.890625 44.5625 19.898438 44.5625 16.453125 C 44.5625 10.164062 38.769531 5.0625 31.625 5.0625 C 24.480469 5.0625 18.6875 10.164062 18.6875 16.453125 C 18.6875 19.898438 20.726562 23.890625 24.753906 28.316406 C 25.191406 28.800781 25.628906 29.261719 26.058594 29.695312 Z M 40.25 34.171875 C 40.25 35.0625 36.976562 36.703125 31.625 36.703125 C 26.273438 36.703125 23 35.0625 23 34.171875 C 23 33.503906 24.886719 32.351562 28.324219 31.863281 C 29.660156 33.070312 30.609375 33.804688 30.679688 33.859375 C 31.21875 34.277344 32.03125 34.277344 32.570312 33.859375 C 32.640625 33.804688 33.589844 33.070312 34.925781 31.863281 C 38.683594 32.390625 40.25 33.613281 40.25 34.171875 Z M 31.625 7.59375 C 37.179688 7.597656 41.679688 11.5625 41.6875 16.453125 C 41.6875 19.257812 39.816406 22.804688 36.28125 26.707031 C 34.839844 28.285156 33.285156 29.777344 31.625 31.179688 C 29.976562 29.789062 28.429688 28.304688 26.996094 26.738281 C 23.441406 22.824219 21.5625 19.269531 21.5625 16.453125 C 21.570312 11.5625 26.070312 7.597656 31.625 7.59375 Z M 31.625 7.59375 "/>
<path style=" stroke:none;fill-rule:nonzero;fill:rgb(0%,0%,0%);fill-opacity:1;" d="M 31.625 21.515625 C 34.800781 21.515625 37.375 19.25 37.375 16.453125 C 37.375 13.65625 34.800781 11.390625 31.625 11.390625 C 28.449219 11.390625 25.875 13.65625 25.875 16.453125 C 25.878906 19.246094 28.449219 21.511719 31.625 21.515625 Z M 31.625 13.921875 C 33.210938 13.921875 34.5 15.054688 34.5 16.453125 C 34.5 17.851562 33.210938 18.984375 31.625 18.984375 C 30.039062 18.984375 28.75 17.851562 28.75 16.453125 C 28.75 15.054688 30.039062 13.921875 31.625 13.921875 Z M 31.625 13.921875 "/>
</g>
</svg>
