<?xml version="1.0" encoding="UTF-8"?>
<svg xmlns="http://www.w3.org/2000/svg" xmlns:xlink="http://www.w3.org/1999/xlink" width="110px" height="107px" viewBox="0 0 110 107" version="1.1">
<g id="surface1">
<path style=" stroke:none;fill-rule:nonzero;fill:rgb(38.823529%,73.72549%,90.588235%);fill-opacity:1;" d="M 63.90625 90.644531 L 27.996094 90.644531 C 24.085938 90.644531 20.914062 87.5625 20.914062 83.753906 L 20.914062 12.417969 C 20.914062 8.613281 24.085938 5.527344 27.996094 5.527344 L 63.90625 5.527344 C 67.816406 5.527344 70.988281 8.613281 70.988281 12.417969 L 70.988281 83.753906 C 70.988281 87.5625 67.816406 90.644531 63.90625 90.644531 Z M 63.90625 90.644531 "/>
<path style=" stroke:none;fill-rule:nonzero;fill:rgb(38.823529%,46.666667%,90.588235%);fill-opacity:1;" d="M 27.21875 83.753906 L 27.21875 12.417969 C 27.21875 8.613281 30.386719 5.527344 34.300781 5.527344 L 27.996094 5.527344 C 24.085938 5.527344 20.914062 8.613281 20.914062 12.417969 L 20.914062 83.753906 C 20.914062 87.558594 24.085938 90.644531 27.996094 90.644531 L 34.300781 90.644531 C 30.386719 90.644531 27.21875 87.5625 27.21875 83.753906 Z M 27.21875 83.753906 "/>
<path style=" stroke:none;fill-rule:nonzero;fill:rgb(80.784314%,80.784314%,80.784314%);fill-opacity:1;" d="M 20.914062 83.757812 C 20.914062 87.5625 24.085938 90.644531 27.996094 90.644531 L 63.90625 90.644531 C 67.820312 90.644531 70.988281 87.5625 70.988281 83.757812 L 70.988281 79.6875 L 20.914062 79.6875 Z M 20.914062 83.757812 "/>
<path style=" stroke:none;fill-rule:nonzero;fill:rgb(68.627451%,68.627451%,68.627451%);fill-opacity:1;" d="M 27.21875 83.757812 L 27.21875 79.6875 L 20.914062 79.6875 L 20.914062 83.757812 C 20.914062 87.5625 24.085938 90.644531 27.996094 90.644531 L 34.296875 90.644531 C 30.386719 90.644531 27.21875 87.5625 27.21875 83.757812 Z M 27.21875 83.757812 "/>
<path style=" stroke:none;fill-rule:nonzero;fill:rgb(80.784314%,80.784314%,80.784314%);fill-opacity:1;" d="M 70.988281 12.417969 C 70.988281 8.613281 67.820312 5.527344 63.90625 5.527344 L 27.996094 5.527344 C 24.085938 5.527344 20.914062 8.613281 20.914062 12.417969 L 20.914062 16.488281 L 70.988281 16.488281 Z M 70.988281 12.417969 "/>
<path style=" stroke:none;fill-rule:nonzero;fill:rgb(68.627451%,68.627451%,68.627451%);fill-opacity:1;" d="M 34.296875 5.527344 L 27.996094 5.527344 C 24.085938 5.527344 20.914062 8.613281 20.914062 12.417969 L 20.914062 16.488281 L 27.21875 16.488281 L 27.21875 12.417969 C 27.21875 8.613281 30.386719 5.527344 34.296875 5.527344 Z M 34.296875 5.527344 "/>
<path style=" stroke:none;fill-rule:nonzero;fill:rgb(97.254902%,68.627451%,13.72549%);fill-opacity:1;" d="M 36.992188 9.777344 L 54.695312 9.777344 L 54.695312 12.238281 L 36.992188 12.238281 Z M 36.992188 9.777344 "/>
<path style=" stroke:none;fill-rule:nonzero;fill:rgb(97.254902%,68.627451%,13.72549%);fill-opacity:1;" d="M 48.175781 85.355469 C 48.175781 86.511719 47.214844 87.449219 46.027344 87.449219 C 44.839844 87.449219 43.878906 86.511719 43.878906 85.355469 C 43.878906 84.203125 44.839844 83.265625 46.027344 83.265625 C 47.214844 83.265625 48.175781 84.203125 48.175781 85.355469 Z M 48.175781 85.355469 "/>
<path style=" stroke:none;fill-rule:nonzero;fill:rgb(80.784314%,80.784314%,80.784314%);fill-opacity:1;" d="M 28.816406 42.964844 L 13.015625 42.964844 C 11.285156 42.964844 9.882812 41.597656 9.882812 39.917969 L 9.882812 24.546875 C 9.882812 22.863281 11.285156 21.5 13.015625 21.5 L 28.816406 21.5 C 30.546875 21.5 31.949219 22.863281 31.949219 24.546875 L 31.949219 39.917969 C 31.945312 41.597656 30.546875 42.964844 28.816406 42.964844 Z M 28.816406 42.964844 "/>
<path style=" stroke:none;fill-rule:nonzero;fill:rgb(68.627451%,68.627451%,68.627451%);fill-opacity:1;" d="M 16.183594 39.917969 L 16.183594 24.546875 C 16.183594 22.863281 17.585938 21.5 19.316406 21.5 L 13.015625 21.5 C 11.285156 21.5 9.882812 22.863281 9.882812 24.546875 L 9.882812 39.917969 C 9.882812 41.597656 11.285156 42.964844 13.015625 42.964844 L 19.316406 42.964844 C 17.585938 42.964844 16.183594 41.597656 16.183594 39.917969 Z M 16.183594 39.917969 "/>
<path style=" stroke:none;fill-rule:nonzero;fill:rgb(97.254902%,68.627451%,13.72549%);fill-opacity:1;" d="M 28.816406 74.675781 L 13.015625 74.675781 C 11.285156 74.675781 9.882812 73.308594 9.882812 71.628906 L 9.882812 56.257812 C 9.882812 54.574219 11.285156 53.210938 13.015625 53.210938 L 28.816406 53.210938 C 30.546875 53.210938 31.949219 54.574219 31.949219 56.257812 L 31.949219 71.628906 C 31.945312 73.308594 30.546875 74.675781 28.816406 74.675781 Z M 28.816406 74.675781 "/>
<path style=" stroke:none;fill-rule:nonzero;fill:rgb(97.254902%,43.921569%,13.72549%);fill-opacity:1;" d="M 16.183594 71.628906 L 16.183594 56.257812 C 16.183594 54.574219 17.585938 53.210938 19.316406 53.210938 L 13.015625 53.210938 C 11.285156 53.210938 9.882812 54.574219 9.882812 56.257812 L 9.882812 71.628906 C 9.882812 73.308594 11.285156 74.675781 13.015625 74.675781 L 19.316406 74.675781 C 17.585938 74.675781 16.183594 73.308594 16.183594 71.628906 Z M 16.183594 71.628906 "/>
<path style=" stroke:none;fill-rule:nonzero;fill:rgb(95.686275%,38.431373%,45.882353%);fill-opacity:1;" d="M 57.167969 58.820312 L 41.367188 58.820312 C 39.636719 58.820312 38.234375 57.453125 38.234375 55.773438 L 38.234375 40.402344 C 38.234375 38.71875 39.636719 37.355469 41.367188 37.355469 L 57.167969 37.355469 C 58.898438 37.355469 60.300781 38.71875 60.300781 40.402344 L 60.300781 55.773438 C 60.300781 57.453125 58.898438 58.820312 57.167969 58.820312 Z M 57.167969 58.820312 "/>
<path style=" stroke:none;fill-rule:nonzero;fill:rgb(97.254902%,68.627451%,13.72549%);fill-opacity:1;" d="M 70.980469 22.042969 L 70.980469 43.507812 L 66.636719 38.550781 C 64.835938 36.496094 61.636719 36.246094 59.523438 38 C 57.410156 39.75 57.152344 42.863281 58.953125 44.921875 L 68.835938 56.195312 C 68.835938 56.195312 65.886719 68.300781 73.660156 75.21875 L 95.632812 75.21875 L 93.6875 49.210938 C 93.453125 46.8125 91.929688 44.78125 90.382812 43.097656 Z M 70.980469 22.042969 "/>
<path style=" stroke:none;fill-rule:nonzero;fill:rgb(97.254902%,82.745098%,13.72549%);fill-opacity:1;" d="M 93.6875 49.210938 C 93.453125 46.8125 91.929688 44.78125 90.382812 43.097656 L 70.980469 22.042969 L 70.980469 28.882812 L 84.078125 43.097656 C 85.628906 44.78125 87.148438 46.8125 87.382812 49.210938 L 89.332031 75.21875 L 95.632812 75.21875 Z M 93.6875 49.210938 "/>
<path style=" stroke:none;fill-rule:nonzero;fill:rgb(43.921569%,43.921569%,43.921569%);fill-opacity:1;" d="M 65.957031 75.21875 L 100.117188 75.21875 L 100.117188 90.644531 L 65.957031 90.644531 Z M 65.957031 75.21875 "/>
<path style=" stroke:none;fill-rule:nonzero;fill:rgb(61.960784%,61.960784%,61.960784%);fill-opacity:1;" d="M 93.816406 75.21875 L 100.117188 75.21875 L 100.117188 90.644531 L 93.816406 90.644531 Z M 93.816406 75.21875 "/>
<path style=" stroke:none;fill-rule:nonzero;fill:rgb(80.784314%,80.784314%,80.784314%);fill-opacity:1;" d="M 65.957031 90.644531 L 100.117188 90.644531 L 100.117188 96.882812 L 65.957031 96.882812 Z M 65.957031 90.644531 "/>
<path style=" stroke:none;fill-rule:nonzero;fill:rgb(88.627451%,88.627451%,88.627451%);fill-opacity:1;" d="M 93.816406 90.644531 L 100.117188 90.644531 L 100.117188 96.882812 L 93.816406 96.882812 Z M 93.816406 90.644531 "/>
<path style=" stroke:none;fill-rule:nonzero;fill:rgb(38.823529%,73.72549%,90.588235%);fill-opacity:1;" d="M 76.957031 82.929688 C 76.957031 84.492188 75.65625 85.757812 74.054688 85.757812 C 72.449219 85.757812 71.148438 84.492188 71.148438 82.929688 C 71.148438 81.371094 72.449219 80.105469 74.054688 80.105469 C 75.65625 80.105469 76.957031 81.371094 76.957031 82.929688 Z M 76.957031 82.929688 "/>
<path style=" stroke:none;fill-rule:nonzero;fill:rgb(95.686275%,38.431373%,45.882353%);fill-opacity:1;" d="M 16.859375 70.160156 L 25.257812 64.792969 C 25.886719 64.390625 25.886719 63.492188 25.257812 63.089844 L 16.859375 57.722656 C 16.164062 57.277344 15.238281 57.765625 15.238281 58.574219 L 15.238281 69.308594 C 15.238281 70.121094 16.164062 70.605469 16.859375 70.160156 Z M 16.859375 70.160156 "/>
<path style=" stroke:none;fill-rule:nonzero;fill:rgb(24.705882%,21.176471%,47.45098%);fill-opacity:1;" d="M 11.742188 100.84375 L 4.003906 100.84375 C 3.648438 100.84375 3.359375 101.125 3.359375 101.472656 C 3.359375 101.816406 3.648438 102.097656 4.003906 102.097656 L 11.742188 102.097656 C 12.097656 102.097656 12.386719 101.816406 12.386719 101.472656 C 12.386719 101.125 12.097656 100.84375 11.742188 100.84375 Z M 11.742188 100.84375 "/>
<path style=" stroke:none;fill-rule:nonzero;fill:rgb(24.705882%,21.176471%,47.45098%);fill-opacity:1;" d="M 105.996094 100.84375 L 98.257812 100.84375 C 97.902344 100.84375 97.613281 101.125 97.613281 101.472656 C 97.613281 101.816406 97.902344 102.097656 98.257812 102.097656 L 105.996094 102.097656 C 106.351562 102.097656 106.640625 101.816406 106.640625 101.472656 C 106.640625 101.125 106.351562 100.84375 105.996094 100.84375 Z M 105.996094 100.84375 "/>
<path style=" stroke:none;fill-rule:nonzero;fill:rgb(24.705882%,21.176471%,47.45098%);fill-opacity:1;" d="M 93.878906 100.84375 L 16.121094 100.84375 C 15.765625 100.84375 15.476562 101.125 15.476562 101.472656 C 15.476562 101.816406 15.765625 102.097656 16.121094 102.097656 L 93.878906 102.097656 C 94.234375 102.097656 94.523438 101.816406 94.523438 101.472656 C 94.523438 101.125 94.234375 100.84375 93.878906 100.84375 Z M 93.878906 100.84375 "/>
<path style=" stroke:none;fill-rule:nonzero;fill:rgb(24.705882%,21.176471%,47.45098%);fill-opacity:1;" d="M 4.003906 97.511719 L 105.996094 97.511719 C 106.351562 97.511719 106.640625 97.230469 106.640625 96.886719 C 106.640625 96.539062 106.351562 96.257812 105.996094 96.257812 L 100.761719 96.257812 L 100.761719 75.21875 C 100.761719 74.871094 100.472656 74.589844 100.117188 74.589844 L 96.234375 74.589844 L 94.328125 49.152344 C 94.066406 46.46875 92.339844 44.285156 90.863281 42.679688 L 71.632812 21.8125 L 71.632812 12.417969 C 71.632812 8.273438 68.167969 4.902344 63.90625 4.902344 L 27.996094 4.902344 C 23.734375 4.902344 20.269531 8.273438 20.269531 12.417969 L 20.269531 20.871094 L 13.015625 20.871094 C 10.933594 20.871094 9.238281 22.519531 9.238281 24.546875 L 9.238281 39.917969 C 9.238281 41.941406 10.933594 43.589844 13.015625 43.589844 L 20.269531 43.589844 L 20.269531 52.582031 L 13.015625 52.582031 C 10.933594 52.582031 9.238281 54.230469 9.238281 56.257812 L 9.238281 71.625 C 9.238281 73.652344 10.933594 75.300781 13.015625 75.300781 L 20.269531 75.300781 L 20.269531 83.757812 C 20.269531 87.898438 23.734375 91.269531 27.996094 91.269531 L 63.90625 91.269531 C 64.378906 91.269531 64.851562 91.226562 65.3125 91.144531 L 65.3125 96.257812 L 4.003906 96.257812 C 3.648438 96.257812 3.359375 96.539062 3.359375 96.886719 C 3.359375 97.230469 3.648438 97.511719 4.003906 97.511719 Z M 99.472656 90.019531 L 66.601562 90.019531 L 66.601562 75.84375 L 99.472656 75.84375 Z M 72.125 74.589844 L 71.632812 74.589844 L 71.632812 74.023438 C 71.792969 74.214844 71.957031 74.40625 72.125 74.589844 Z M 89.902344 43.519531 C 91.246094 44.976562 92.820312 46.949219 93.042969 49.257812 L 94.941406 74.589844 L 73.914062 74.589844 C 66.742188 67.980469 69.433594 56.457031 69.464844 56.339844 C 69.511719 56.144531 69.460938 55.941406 69.328125 55.789062 L 59.445312 44.515625 C 57.871094 42.714844 58.09375 40.007812 59.941406 38.476562 C 61.789062 36.945312 64.574219 37.160156 66.148438 38.957031 L 70.488281 43.914062 L 78.738281 53.324219 C 78.863281 53.46875 79.046875 53.542969 79.226562 53.542969 C 79.375 53.542969 79.523438 53.496094 79.644531 53.394531 C 79.917969 53.171875 79.949219 52.773438 79.71875 52.511719 L 71.632812 43.285156 C 71.632812 43.28125 71.632812 43.277344 71.632812 43.273438 L 71.632812 23.691406 Z M 59.664062 46.695312 C 59.660156 46.722656 59.65625 46.746094 59.65625 46.773438 L 59.65625 55.773438 C 59.65625 57.105469 58.539062 58.191406 57.167969 58.191406 L 41.367188 58.191406 C 39.996094 58.191406 38.878906 57.105469 38.878906 55.773438 L 38.878906 40.402344 C 38.878906 39.066406 39.996094 37.980469 41.367188 37.980469 L 57.167969 37.980469 C 57.589844 37.980469 57.992188 38.085938 58.351562 38.277344 C 56.683594 40.308594 56.667969 43.277344 58.464844 45.328125 Z M 21.558594 12.417969 C 21.558594 8.964844 24.445312 6.15625 27.996094 6.15625 L 63.90625 6.15625 C 67.457031 6.15625 70.34375 8.964844 70.34375 12.417969 L 70.34375 15.859375 L 21.558594 15.859375 Z M 10.527344 39.917969 L 10.527344 24.546875 C 10.527344 23.210938 11.640625 22.128906 13.015625 22.128906 L 28.816406 22.128906 C 30.1875 22.128906 31.304688 23.210938 31.304688 24.546875 L 31.304688 39.917969 C 31.304688 41.25 30.1875 42.335938 28.816406 42.335938 L 13.015625 42.335938 C 11.640625 42.335938 10.527344 41.25 10.527344 39.917969 Z M 10.527344 71.628906 L 10.527344 56.257812 C 10.527344 54.921875 11.640625 53.835938 13.015625 53.835938 L 28.816406 53.835938 C 30.1875 53.835938 31.304688 54.921875 31.304688 56.257812 L 31.304688 71.628906 C 31.304688 72.960938 30.1875 74.046875 28.816406 74.046875 L 13.015625 74.046875 C 11.640625 74.046875 10.527344 72.960938 10.527344 71.628906 Z M 28.816406 75.300781 C 30.898438 75.300781 32.59375 73.652344 32.59375 71.628906 L 32.59375 56.257812 C 32.59375 54.230469 30.898438 52.582031 28.816406 52.582031 L 21.558594 52.582031 L 21.558594 43.589844 L 28.816406 43.589844 C 30.898438 43.589844 32.59375 41.941406 32.59375 39.917969 L 32.59375 24.546875 C 32.59375 22.519531 30.898438 20.875 28.816406 20.875 L 21.558594 20.875 L 21.558594 17.113281 L 70.34375 17.113281 L 70.34375 21.992188 C 70.34375 22.011719 70.335938 22.027344 70.335938 22.042969 L 70.335938 41.804688 L 67.128906 38.144531 C 65.144531 35.878906 61.683594 35.5625 59.296875 37.375 C 58.667969 36.957031 57.9375 36.730469 57.167969 36.730469 L 41.367188 36.730469 C 39.285156 36.730469 37.589844 38.375 37.589844 40.402344 L 37.589844 55.773438 C 37.589844 57.796875 39.285156 59.445312 41.367188 59.445312 L 57.167969 59.445312 C 59.25 59.445312 60.945312 57.796875 60.945312 55.773438 L 60.945312 48.15625 L 68.136719 56.367188 C 67.953125 57.253906 67.492188 59.890625 67.6875 63.148438 C 67.898438 66.625 68.808594 69.695312 70.355469 72.226562 C 70.347656 72.261719 70.34375 72.300781 70.34375 72.339844 L 70.34375 74.589844 L 65.957031 74.589844 C 65.601562 74.589844 65.3125 74.871094 65.3125 75.21875 L 65.3125 79.058594 L 21.558594 79.058594 L 21.558594 75.300781 Z M 27.996094 90.019531 C 24.449219 90.019531 21.558594 87.207031 21.558594 83.753906 L 21.558594 80.3125 L 65.3125 80.3125 L 65.3125 89.867188 C 64.851562 89.964844 64.378906 90.019531 63.90625 90.019531 Z M 66.601562 91.273438 L 99.472656 91.273438 L 99.472656 96.257812 L 66.601562 96.257812 Z M 66.601562 91.273438 "/>
<path style=" stroke:none;fill-rule:nonzero;fill:rgb(24.705882%,21.176471%,47.45098%);fill-opacity:1;" d="M 54.695312 9.152344 L 36.992188 9.152344 C 36.636719 9.152344 36.347656 9.433594 36.347656 9.777344 L 36.347656 12.238281 C 36.347656 12.585938 36.636719 12.863281 36.992188 12.863281 L 54.695312 12.863281 C 55.050781 12.863281 55.339844 12.585938 55.339844 12.238281 L 55.339844 9.777344 C 55.339844 9.433594 55.050781 9.152344 54.695312 9.152344 Z M 54.050781 11.609375 L 37.636719 11.609375 L 37.636719 10.40625 L 54.050781 10.40625 Z M 54.050781 11.609375 "/>
<path style=" stroke:none;fill-rule:nonzero;fill:rgb(24.705882%,21.176471%,47.45098%);fill-opacity:1;" d="M 46.027344 82.636719 C 44.488281 82.636719 43.234375 83.859375 43.234375 85.355469 C 43.234375 86.855469 44.488281 88.074219 46.027344 88.074219 C 47.566406 88.074219 48.820312 86.855469 48.820312 85.355469 C 48.820312 83.859375 47.566406 82.636719 46.027344 82.636719 Z M 46.027344 86.820312 C 45.195312 86.820312 44.523438 86.164062 44.523438 85.355469 C 44.523438 84.546875 45.195312 83.890625 46.027344 83.890625 C 46.855469 83.890625 47.53125 84.546875 47.53125 85.355469 C 47.53125 86.164062 46.855469 86.820312 46.027344 86.820312 Z M 46.027344 86.820312 "/>
<path style=" stroke:none;fill-rule:nonzero;fill:rgb(24.705882%,21.176471%,47.45098%);fill-opacity:1;" d="M 74.054688 79.476562 C 72.09375 79.476562 70.503906 81.027344 70.503906 82.929688 C 70.503906 84.835938 72.09375 86.386719 74.054688 86.386719 C 76.011719 86.386719 77.601562 84.835938 77.601562 82.929688 C 77.601562 81.027344 76.011719 79.476562 74.054688 79.476562 Z M 74.054688 85.132812 C 72.804688 85.132812 71.792969 84.144531 71.792969 82.929688 C 71.792969 81.71875 72.804688 80.730469 74.054688 80.730469 C 75.300781 80.730469 76.3125 81.71875 76.3125 82.929688 C 76.3125 84.144531 75.300781 85.132812 74.054688 85.132812 Z M 74.054688 85.132812 "/>
<path style=" stroke:none;fill-rule:nonzero;fill:rgb(24.705882%,21.176471%,47.45098%);fill-opacity:1;" d="M 24.546875 25.117188 L 17.28125 25.117188 C 15.25 25.117188 13.597656 26.722656 13.597656 28.699219 L 13.597656 35.765625 C 13.597656 37.742188 15.25 39.347656 17.28125 39.347656 L 24.546875 39.347656 C 26.578125 39.347656 28.230469 37.742188 28.230469 35.765625 L 28.230469 28.699219 C 28.230469 26.722656 26.578125 25.117188 24.546875 25.117188 Z M 26.941406 35.765625 C 26.941406 37.050781 25.867188 38.09375 24.546875 38.09375 L 17.28125 38.09375 C 15.960938 38.09375 14.886719 37.050781 14.886719 35.765625 L 14.886719 28.699219 C 14.886719 27.414062 15.960938 26.371094 17.28125 26.371094 L 24.546875 26.371094 C 25.867188 26.371094 26.941406 27.414062 26.941406 28.699219 Z M 26.941406 35.765625 "/>
<path style=" stroke:none;fill-rule:nonzero;fill:rgb(24.705882%,21.176471%,47.45098%);fill-opacity:1;" d="M 20.914062 28.273438 C 18.671875 28.273438 16.84375 30.046875 16.84375 32.230469 C 16.84375 34.414062 18.671875 36.191406 20.914062 36.191406 C 23.160156 36.191406 24.984375 34.414062 24.984375 32.230469 C 24.984375 30.046875 23.160156 28.273438 20.914062 28.273438 Z M 20.914062 34.9375 C 19.382812 34.9375 18.132812 33.722656 18.132812 32.230469 C 18.132812 30.738281 19.382812 29.527344 20.914062 29.527344 C 22.449219 29.527344 23.695312 30.738281 23.695312 32.230469 C 23.695312 33.722656 22.449219 34.9375 20.914062 34.9375 Z M 20.914062 34.9375 "/>
<path style=" stroke:none;fill-rule:nonzero;fill:rgb(24.705882%,21.176471%,47.45098%);fill-opacity:1;" d="M 52.738281 40.488281 L 50.449219 40.488281 C 48.527344 40.488281 46.96875 42.007812 46.96875 43.875 L 46.96875 47.105469 L 45.800781 47.105469 C 45.445312 47.105469 45.15625 47.386719 45.15625 47.734375 C 45.15625 48.082031 45.445312 48.359375 45.800781 48.359375 L 46.96875 48.359375 L 46.96875 56.144531 C 46.96875 56.488281 47.257812 56.769531 47.613281 56.769531 C 47.96875 56.769531 48.257812 56.488281 48.257812 56.144531 L 48.257812 48.359375 L 50.679688 48.359375 C 51.035156 48.359375 51.324219 48.082031 51.324219 47.734375 C 51.324219 47.386719 51.035156 47.105469 50.679688 47.105469 L 48.257812 47.105469 L 48.257812 43.875 C 48.257812 42.699219 49.238281 41.742188 50.449219 41.742188 L 52.738281 41.742188 C 53.09375 41.742188 53.382812 41.460938 53.382812 41.117188 C 53.382812 40.769531 53.09375 40.488281 52.738281 40.488281 Z M 52.738281 40.488281 "/>
<path style=" stroke:none;fill-rule:nonzero;fill:rgb(24.705882%,21.176471%,47.45098%);fill-opacity:1;" d="M 25.613281 62.566406 L 17.214844 57.199219 C 16.695312 56.867188 16.03125 56.839844 15.484375 57.125 C 14.933594 57.414062 14.59375 57.96875 14.59375 58.574219 L 14.59375 69.308594 C 14.59375 69.917969 14.933594 70.472656 15.480469 70.757812 C 15.734375 70.890625 16.011719 70.957031 16.285156 70.957031 C 16.609375 70.957031 16.933594 70.867188 17.214844 70.6875 L 25.613281 65.320312 C 26.089844 65.011719 26.375 64.5 26.375 63.941406 C 26.375 63.386719 26.089844 62.871094 25.613281 62.566406 Z M 24.90625 64.269531 L 16.507812 69.636719 C 16.324219 69.753906 16.160156 69.6875 16.09375 69.65625 C 16.03125 69.621094 15.882812 69.523438 15.882812 69.308594 L 15.882812 58.574219 C 15.882812 58.363281 16.03125 58.261719 16.09375 58.230469 C 16.132812 58.210938 16.203125 58.179688 16.289062 58.179688 C 16.355469 58.179688 16.429688 58.199219 16.507812 58.246094 L 24.90625 63.613281 C 25.070312 63.71875 25.085938 63.878906 25.085938 63.941406 C 25.085938 64.003906 25.070312 64.164062 24.90625 64.269531 Z M 24.90625 64.269531 "/>
</g>
</svg>
