<?xml version="1.0" encoding="UTF-8"?>
<svg xmlns="http://www.w3.org/2000/svg" xmlns:xlink="http://www.w3.org/1999/xlink" width="80px" height="80px" viewBox="0 0 80 80" version="1.1">
<g id="surface1">
<path style=" stroke:none;fill-rule:nonzero;fill:rgb(0%,0%,0%);fill-opacity:1;" d="M 69.53125 12.921875 L 10.472656 12.921875 C 6.160156 12.925781 2.664062 16.421875 2.660156 20.734375 L 2.660156 59.265625 C 2.664062 63.578125 6.160156 67.074219 10.472656 67.078125 L 69.53125 67.078125 C 73.84375 67.074219 77.339844 63.578125 77.34375 59.265625 L 77.34375 20.734375 C 77.339844 16.421875 73.84375 12.925781 69.53125 12.921875 Z M 55.640625 39.988281 L 74.21875 25.410156 L 74.21875 58.023438 Z M 10.472656 16.046875 L 69.53125 16.046875 C 72.121094 16.050781 74.21875 18.148438 74.21875 20.734375 L 74.21875 21.4375 L 44.15625 45.03125 C 41.894531 46.796875 38.71875 46.796875 36.460938 45.027344 L 5.785156 21.429688 L 5.785156 20.734375 C 5.789062 18.148438 7.882812 16.050781 10.472656 16.046875 Z M 24.914062 40.085938 L 5.785156 58.085938 L 5.785156 25.371094 Z M 69.53125 63.953125 L 10.472656 63.953125 C 8.84375 63.953125 7.335938 63.109375 6.480469 61.722656 L 27.425781 42.019531 L 34.546875 47.496094 C 37.9375 50.144531 42.691406 50.144531 46.082031 47.492188 L 53.160156 41.9375 L 73.53125 61.710938 C 72.679688 63.101562 71.164062 63.953125 69.53125 63.953125 Z M 69.53125 63.953125 "/>
</g>
</svg>
