<?xml version="1.0" encoding="UTF-8"?>
<svg xmlns="http://www.w3.org/2000/svg" xmlns:xlink="http://www.w3.org/1999/xlink" width="80px" height="80px" viewBox="0 0 80 80" version="1.1">
<g id="surface1">
<path style=" stroke:none;fill-rule:nonzero;fill:rgb(0%,0%,0%);fill-opacity:1;" d="M 57.648438 0 L 22.351562 0 C 19.421875 0 17.050781 2.371094 17.050781 5.300781 L 17.050781 74.699219 C 17.050781 77.628906 19.421875 80 22.351562 80 L 57.648438 80 C 60.578125 80 62.949219 77.628906 62.949219 74.699219 L 62.949219 5.300781 C 62.949219 2.371094 60.578125 0 57.648438 0 Z M 60.449219 74.699219 C 60.441406 76.242188 59.195312 77.492188 57.648438 77.5 L 22.351562 77.5 C 20.804688 77.492188 19.558594 76.242188 19.550781 74.699219 L 19.550781 5.300781 C 19.558594 3.757812 20.804688 2.507812 22.351562 2.5 L 57.648438 2.5 C 59.195312 2.507812 60.441406 3.757812 60.449219 5.300781 Z M 43.75 70.425781 L 36.375 70.425781 C 35.167969 70.425781 34.1875 71.40625 34.1875 72.613281 L 34.1875 73.601562 C 34.195312 74.804688 35.167969 75.78125 36.375 75.789062 L 43.75 75.789062 C 44.957031 75.78125 45.929688 74.804688 45.9375 73.601562 L 45.9375 72.613281 C 45.9375 71.40625 44.957031 70.425781 43.75 70.425781 Z M 44.6875 73.601562 C 44.679688 74.113281 44.265625 74.53125 43.75 74.539062 L 36.375 74.539062 C 35.859375 74.53125 35.445312 74.113281 35.4375 73.601562 L 35.4375 72.613281 C 35.4375 72.09375 35.855469 71.675781 36.375 71.675781 L 43.75 71.675781 C 44.269531 71.675781 44.6875 72.09375 44.6875 72.613281 Z M 21.875 69.375 L 58.125 69.375 L 58.125 10.625 L 21.875 10.625 Z M 23.125 11.875 L 56.875 11.875 L 56.875 68.125 L 23.125 68.125 Z M 34.375 7.5 C 34.375 7.15625 34.65625 6.875 35 6.875 L 45 6.875 C 45.34375 6.875 45.625 7.15625 45.625 7.5 C 45.625 7.84375 45.34375 8.125 45 8.125 L 35 8.125 C 34.65625 8.125 34.375 7.84375 34.375 7.5 Z M 53.75 7.5 C 53.75 6.941406 54.203125 6.488281 54.761719 6.488281 C 55.320312 6.488281 55.773438 6.941406 55.773438 7.5 C 55.773438 8.058594 55.320312 8.511719 54.761719 8.511719 C 54.203125 8.511719 53.75 8.058594 53.75 7.5 Z M 51.875 7.5 C 51.875 7.15625 52.15625 6.875 52.5 6.875 C 52.84375 6.875 53.125 7.15625 53.125 7.5 C 53.125 7.84375 52.84375 8.125 52.5 8.125 C 52.15625 8.125 51.875 7.84375 51.875 7.5 Z M 56.976562 73.550781 C 56.867188 74.726562 55.839844 75.597656 54.664062 75.511719 L 52.164062 75.511719 C 51.898438 75.511719 51.6875 75.300781 51.6875 75.039062 C 51.6875 74.914062 51.738281 74.792969 51.828125 74.707031 C 51.917969 74.617188 52.039062 74.570312 52.164062 74.574219 L 54.664062 74.574219 C 55.414062 74.574219 56.039062 74.101562 56.039062 73.550781 C 56.039062 73 55.414062 72.523438 54.664062 72.523438 L 51.488281 72.523438 L 51.738281 72.738281 C 51.894531 72.835938 51.980469 73.019531 51.953125 73.203125 C 51.929688 73.390625 51.796875 73.542969 51.621094 73.59375 C 51.441406 73.648438 51.246094 73.589844 51.125 73.449219 L 49.875 72.414062 C 49.835938 72.34375 49.8125 72.265625 49.800781 72.1875 C 49.792969 72.15625 49.792969 72.121094 49.800781 72.085938 L 49.800781 72 C 49.828125 71.953125 49.859375 71.910156 49.898438 71.875 L 51.148438 70.800781 C 51.34375 70.632812 51.636719 70.652344 51.804688 70.84375 C 51.976562 71.035156 51.957031 71.332031 51.761719 71.5 L 51.476562 71.761719 L 54.6875 71.761719 C 55.796875 71.683594 56.785156 72.453125 56.976562 73.550781 Z M 28.914062 71.886719 C 28.914062 72.011719 28.863281 72.132812 28.773438 72.21875 C 28.683594 72.304688 28.5625 72.351562 28.4375 72.351562 L 24.6875 72.351562 C 24.5625 72.351562 24.445312 72.304688 24.355469 72.21875 C 24.269531 72.132812 24.222656 72.011719 24.226562 71.886719 C 24.222656 71.761719 24.269531 71.640625 24.355469 71.550781 C 24.441406 71.464844 24.5625 71.414062 24.6875 71.414062 L 28.4375 71.414062 C 28.699219 71.414062 28.914062 71.625 28.914062 71.886719 Z M 28.914062 73.136719 C 28.914062 73.261719 28.863281 73.382812 28.773438 73.46875 C 28.683594 73.554688 28.5625 73.601562 28.4375 73.601562 L 24.6875 73.601562 C 24.5625 73.601562 24.445312 73.554688 24.355469 73.46875 C 24.269531 73.382812 24.222656 73.261719 24.226562 73.136719 C 24.222656 73.011719 24.269531 72.890625 24.355469 72.800781 C 24.441406 72.714844 24.5625 72.664062 24.6875 72.664062 L 28.4375 72.664062 C 28.699219 72.664062 28.914062 72.875 28.914062 73.136719 Z M 28.914062 74.386719 C 28.914062 74.511719 28.863281 74.632812 28.773438 74.71875 C 28.683594 74.804688 28.5625 74.851562 28.4375 74.851562 L 24.6875 74.851562 C 24.5625 74.851562 24.445312 74.804688 24.355469 74.71875 C 24.269531 74.632812 24.222656 74.511719 24.226562 74.386719 C 24.222656 74.261719 24.269531 74.140625 24.355469 74.050781 C 24.441406 73.964844 24.5625 73.914062 24.6875 73.914062 L 28.4375 73.914062 C 28.699219 73.914062 28.914062 74.125 28.914062 74.386719 Z M 28.914062 74.386719 "/>
</g>
</svg>
