<?xml version="1.0" encoding="UTF-8"?>
<svg xmlns="http://www.w3.org/2000/svg" xmlns:xlink="http://www.w3.org/1999/xlink" width="110px" height="107px" viewBox="0 0 110 107" version="1.1">
<g id="surface1">
<path style=" stroke:none;fill-rule:nonzero;fill:rgb(0.784314%,0.784314%,0.784314%);fill-opacity:1;" d="M 110.214844 31.140625 C 110.214844 50.71875 110.214844 70.296875 110.132812 90 C 109.820312 91.964844 108.785156 93.433594 107.480469 94.636719 C 105.496094 96.464844 102.980469 97 100.273438 96.984375 C 93.375 96.941406 86.476562 96.96875 79.578125 96.96875 C 79.203125 96.96875 78.824219 96.96875 78.484375 96.96875 C 78.484375 99.277344 78.484375 101.449219 78.484375 103.699219 C 80.855469 103.699219 83.164062 103.699219 85.507812 103.699219 C 85.507812 104.921875 85.507812 106.066406 85.507812 107.210938 C 65.378906 107.210938 45.25 107.210938 25.023438 107.109375 C 24.921875 105.910156 24.921875 104.808594 24.921875 103.628906 C 27.339844 103.628906 29.648438 103.628906 31.953125 103.628906 C 31.953125 101.371094 31.953125 99.195312 31.953125 96.96875 C 27.820312 96.96875 23.746094 96.996094 19.671875 96.960938 C 15.609375 96.925781 11.542969 96.917969 7.484375 96.722656 C 5.464844 96.628906 3.847656 95.535156 2.453125 94.070312 C 1.335938 92.894531 0.769531 91.503906 0.214844 90.070312 C 0.214844 70.492188 0.214844 50.914062 0.292969 31.210938 C 1.753906 25.898438 5.597656 24.171875 10.742188 24.203125 C 10.742188 23.816406 10.742188 23.476562 10.742188 23.136719 C 10.742188 17.230469 10.738281 11.324219 10.746094 5.417969 C 10.746094 5.078125 10.773438 4.730469 10.839844 4.398438 C 11.257812 2.292969 12.710938 1.058594 14.609375 0.210938 C 41.613281 0.210938 68.617188 0.210938 95.742188 0.285156 C 97.949219 0.898438 99.679688 2.996094 99.683594 5.261719 C 99.695312 11.203125 99.6875 17.148438 99.6875 23.089844 C 99.6875 23.460938 99.6875 23.828125 99.6875 24.132812 C 100.824219 24.25 101.839844 24.3125 102.84375 24.457031 C 104.839844 24.753906 106.5 25.632812 107.921875 27.070312 C 109.089844 28.246094 109.609375 29.699219 110.214844 31.140625 M 26.746094 79.605469 C 53.363281 79.605469 79.980469 79.605469 106.601562 79.605469 C 106.625 79.304688 106.648438 79.164062 106.648438 79.027344 C 106.652344 63.808594 106.652344 48.585938 106.644531 33.367188 C 106.644531 32.78125 106.589844 32.175781 106.429688 31.617188 C 105.640625 28.84375 103.050781 27.4375 99.554688 27.921875 C 99.554688 28.277344 99.554688 28.652344 99.554688 29.027344 C 99.554688 35.855469 99.558594 42.679688 99.546875 49.507812 C 99.546875 50.199219 99.53125 50.914062 99.355469 51.574219 C 98.710938 54.03125 96.648438 55.414062 93.695312 55.414062 C 81.882812 55.417969 70.066406 55.417969 58.25 55.417969 C 57.839844 55.417969 57.429688 55.417969 57.058594 55.417969 C 57.058594 58.980469 57.058594 62.371094 57.058594 65.871094 C 58.269531 65.871094 59.394531 65.871094 60.605469 65.871094 C 60.605469 67.039062 60.605469 68.105469 60.605469 69.246094 C 73.609375 69.246094 86.523438 69.246094 99.496094 69.246094 C 99.496094 70.417969 99.496094 71.511719 99.496094 72.71875 C 86.503906 72.71875 73.566406 72.71875 60.539062 72.71875 C 60.539062 73.890625 60.539062 74.957031 60.539062 76.070312 C 56.960938 76.070312 53.472656 76.070312 49.855469 76.070312 C 49.855469 74.933594 49.855469 73.84375 49.855469 72.683594 C 36.816406 72.683594 23.902344 72.683594 10.933594 72.683594 C 10.933594 71.515625 10.933594 70.421875 10.933594 69.210938 C 23.929688 69.210938 36.867188 69.210938 49.890625 69.210938 C 49.890625 68.027344 49.890625 66.960938 49.890625 65.796875 C 51.105469 65.796875 52.234375 65.796875 53.398438 65.796875 C 53.398438 62.300781 53.398438 58.90625 53.398438 55.417969 C 52.953125 55.417969 52.570312 55.417969 52.183594 55.417969 C 40.476562 55.417969 28.769531 55.417969 17.058594 55.410156 C 16.347656 55.410156 15.613281 55.414062 14.929688 55.25 C 12.328125 54.636719 10.882812 52.648438 10.878906 49.71875 C 10.867188 42.824219 10.875 35.929688 10.875 29.03125 C 10.875 28.65625 10.875 28.28125 10.875 27.929688 C 6.910156 27.253906 3.726562 29.53125 3.746094 33.675781 C 3.824219 48.617188 3.777344 63.558594 3.777344 78.5 C 3.777344 78.839844 3.777344 79.175781 3.777344 79.605469 C 11.441406 79.605469 18.988281 79.605469 26.746094 79.605469 M 14.402344 24.765625 C 14.402344 32.949219 14.402344 41.132812 14.402344 49.550781 C 18.386719 45.675781 22.160156 42.015625 25.921875 38.34375 C 31.511719 32.886719 38.214844 30.53125 46.09375 31.554688 C 47.632812 31.753906 49.140625 32.183594 50.628906 32.5 C 51.546875 31.328125 52.375 30.09375 53.378906 29.015625 C 58.015625 24.046875 63.773438 21.929688 70.625 22.933594 C 76.125 23.738281 80.320312 26.601562 83.492188 30.996094 C 87.394531 36.402344 91.320312 41.792969 95.238281 47.191406 C 95.445312 47.472656 95.664062 47.75 95.972656 48.152344 C 96.007812 47.859375 96.023438 47.792969 96.023438 47.722656 C 96.027344 33.761719 96.03125 19.800781 96.023438 5.839844 C 96.023438 4.242188 95.378906 3.675781 93.59375 3.675781 C 68 3.671875 42.410156 3.671875 16.816406 3.675781 C 14.964844 3.675781 14.402344 4.242188 14.402344 6.066406 C 14.402344 12.230469 14.402344 18.394531 14.402344 24.765625 M 77.882812 93.410156 C 78.882812 93.410156 79.886719 93.410156 80.886719 93.410156 C 87.582031 93.410156 94.277344 93.417969 100.972656 93.40625 C 103.773438 93.398438 106.160156 91.796875 106.472656 89.371094 C 106.734375 87.324219 106.527344 85.222656 106.527344 83.085938 C 72.316406 83.085938 38.109375 83.085938 3.902344 83.085938 C 3.902344 85.226562 3.6875 87.332031 3.960938 89.378906 C 4.289062 91.867188 6.695312 93.40625 9.679688 93.40625 C 32.339844 93.410156 55.003906 93.410156 77.882812 93.410156 M 85.828125 52.003906 C 88.605469 52.003906 91.378906 52.003906 94.28125 52.003906 C 94.125 51.71875 94.0625 51.5625 93.964844 51.429688 C 89.363281 45.089844 84.792969 38.734375 80.148438 32.421875 C 77.316406 28.578125 73.40625 26.410156 68.550781 26.167969 C 62.109375 25.84375 57.390625 28.753906 54.109375 33.804688 C 56.101562 35.445312 58.160156 36.953125 59.996094 38.6875 C 64.386719 42.835938 68.679688 47.082031 72.984375 51.308594 C 73.507812 51.824219 74.03125 52.027344 74.769531 52.019531 C 78.382812 51.984375 82 52.003906 85.828125 52.003906 M 66.210938 49.59375 C 63.121094 46.589844 60.050781 43.574219 56.941406 40.585938 C 48.777344 32.738281 36.742188 32.753906 28.609375 40.621094 C 24.976562 44.132812 21.367188 47.660156 17.746094 51.183594 C 17.523438 51.402344 17.316406 51.644531 17.035156 51.949219 C 34.285156 51.949219 51.34375 51.949219 68.398438 51.949219 C 68.464844 51.867188 68.527344 51.789062 68.589844 51.707031 C 67.835938 51.039062 67.078125 50.371094 66.210938 49.59375 M 38.78125 103.714844 C 50.726562 103.714844 62.675781 103.714844 74.75 103.714844 C 74.75 101.789062 74.75 99.988281 74.75 98.183594 C 74.75 96.816406 74.75 96.8125 73.367188 96.8125 C 61.265625 96.8125 49.164062 96.8125 37.0625 96.8125 C 36.777344 96.8125 36.464844 96.753906 36.210938 96.84375 C 36 96.921875 35.710938 97.171875 35.707031 97.351562 C 35.671875 99.429688 35.6875 101.507812 35.6875 103.714844 C 36.726562 103.714844 37.644531 103.714844 38.78125 103.714844 M 53.457031 71.558594 C 53.457031 71.925781 53.457031 72.289062 53.457031 72.652344 C 54.707031 72.652344 55.796875 72.652344 56.910156 72.652344 C 56.910156 71.5 56.910156 70.410156 56.910156 69.300781 C 55.738281 69.300781 54.625 69.300781 53.457031 69.300781 C 53.457031 70.042969 53.457031 70.699219 53.457031 71.558594 Z M 53.457031 71.558594 "/>
<path style=" stroke:none;fill-rule:nonzero;fill:rgb(100%,100%,100%);fill-opacity:1;" d="M 85.609375 107.210938 C 85.507812 106.066406 85.507812 104.921875 85.507812 103.699219 C 83.164062 103.699219 80.855469 103.699219 78.484375 103.699219 C 78.484375 101.449219 78.484375 99.277344 78.484375 96.96875 C 78.824219 96.96875 79.203125 96.96875 79.578125 96.96875 C 86.476562 96.96875 93.375 96.941406 100.273438 96.984375 C 102.980469 97 105.496094 96.464844 107.480469 94.636719 C 108.785156 93.433594 109.820312 91.964844 110.132812 90.097656 C 110.214844 95.773438 110.214844 101.472656 110.214844 107.210938 C 102.046875 107.210938 93.878906 107.210938 85.609375 107.210938 Z M 85.609375 107.210938 "/>
<path style=" stroke:none;fill-rule:nonzero;fill:rgb(100%,100%,100%);fill-opacity:1;" d="M 0.214844 90.171875 C 0.769531 91.503906 1.335938 92.894531 2.453125 94.070312 C 3.847656 95.535156 5.464844 96.628906 7.484375 96.722656 C 11.542969 96.917969 15.609375 96.925781 19.671875 96.960938 C 23.746094 96.996094 27.820312 96.96875 31.953125 96.96875 C 31.953125 99.195312 31.953125 101.371094 31.953125 103.628906 C 29.648438 103.628906 27.339844 103.628906 24.921875 103.628906 C 24.921875 104.808594 24.921875 105.910156 24.921875 107.109375 C 16.703125 107.210938 8.488281 107.210938 0.214844 107.210938 C 0.214844 101.5625 0.214844 95.914062 0.214844 90.171875 Z M 0.214844 90.171875 "/>
<path style=" stroke:none;fill-rule:nonzero;fill:rgb(100%,100%,100%);fill-opacity:1;" d="M 14.507812 0.210938 C 12.710938 1.058594 11.257812 2.292969 10.839844 4.398438 C 10.773438 4.730469 10.746094 5.078125 10.746094 5.417969 C 10.738281 11.324219 10.742188 17.230469 10.742188 23.136719 C 10.742188 23.476562 10.742188 23.816406 10.742188 24.203125 C 5.597656 24.171875 1.753906 25.898438 0.292969 31.113281 C 0.214844 20.851562 0.214844 10.5625 0.214844 0.210938 C 4.945312 0.210938 9.675781 0.210938 14.507812 0.210938 Z M 14.507812 0.210938 "/>
<path style=" stroke:none;fill-rule:nonzero;fill:rgb(100%,100%,100%);fill-opacity:1;" d="M 110.214844 31.039062 C 109.609375 29.699219 109.089844 28.246094 107.921875 27.070312 C 106.5 25.632812 104.839844 24.753906 102.84375 24.457031 C 101.839844 24.3125 100.824219 24.25 99.6875 24.132812 C 99.6875 23.828125 99.6875 23.460938 99.6875 23.089844 C 99.6875 17.148438 99.695312 11.203125 99.683594 5.261719 C 99.679688 2.996094 97.949219 0.898438 95.84375 0.285156 C 100.609375 0.210938 105.398438 0.210938 110.214844 0.210938 C 110.214844 10.453125 110.214844 20.699219 110.214844 31.039062 Z M 110.214844 31.039062 "/>
<path style=" stroke:none;fill-rule:nonzero;fill:rgb(40.784314%,83.529412%,95.294118%);fill-opacity:1;" d="M 26.640625 79.605469 C 18.988281 79.605469 11.441406 79.605469 3.777344 79.605469 C 3.777344 79.175781 3.777344 78.839844 3.777344 78.5 C 3.777344 63.558594 3.824219 48.617188 3.746094 33.675781 C 3.726562 29.53125 6.910156 27.253906 10.875 27.929688 C 10.875 28.28125 10.875 28.65625 10.875 29.03125 C 10.875 35.929688 10.867188 42.824219 10.878906 49.71875 C 10.882812 52.648438 12.328125 54.636719 14.929688 55.25 C 15.613281 55.414062 16.347656 55.410156 17.058594 55.410156 C 28.769531 55.417969 40.476562 55.417969 52.183594 55.417969 C 52.570312 55.417969 52.953125 55.417969 53.398438 55.417969 C 53.398438 58.90625 53.398438 62.300781 53.398438 65.796875 C 52.234375 65.796875 51.105469 65.796875 49.890625 65.796875 C 49.890625 66.960938 49.890625 68.027344 49.890625 69.210938 C 36.867188 69.210938 23.929688 69.210938 10.933594 69.210938 C 10.933594 70.421875 10.933594 71.515625 10.933594 72.683594 C 23.902344 72.683594 36.816406 72.683594 49.855469 72.683594 C 49.855469 73.84375 49.855469 74.933594 49.855469 76.070312 C 53.472656 76.070312 56.960938 76.070312 60.539062 76.070312 C 60.539062 74.957031 60.539062 73.890625 60.539062 72.71875 C 73.566406 72.71875 86.503906 72.71875 99.496094 72.71875 C 99.496094 71.511719 99.496094 70.417969 99.496094 69.246094 C 86.523438 69.246094 73.609375 69.246094 60.605469 69.246094 C 60.605469 68.105469 60.605469 67.039062 60.605469 65.871094 C 59.394531 65.871094 58.269531 65.871094 57.058594 65.871094 C 57.058594 62.371094 57.058594 58.980469 57.058594 55.417969 C 57.429688 55.417969 57.839844 55.417969 58.25 55.417969 C 70.066406 55.417969 81.882812 55.417969 93.695312 55.414062 C 96.648438 55.414062 98.710938 54.03125 99.355469 51.574219 C 99.53125 50.914062 99.546875 50.199219 99.546875 49.507812 C 99.558594 42.679688 99.554688 35.855469 99.554688 29.027344 C 99.554688 28.652344 99.554688 28.277344 99.554688 27.921875 C 103.050781 27.4375 105.640625 28.84375 106.429688 31.617188 C 106.589844 32.175781 106.644531 32.78125 106.644531 33.367188 C 106.652344 48.585938 106.652344 63.808594 106.648438 79.027344 C 106.648438 79.164062 106.625 79.304688 106.601562 79.605469 C 79.980469 79.605469 53.363281 79.605469 26.640625 79.605469 Z M 26.640625 79.605469 "/>
<path style=" stroke:none;fill-rule:nonzero;fill:rgb(89.803922%,90.980392%,92.54902%);fill-opacity:1;" d="M 14.402344 24.660156 C 14.402344 18.394531 14.402344 12.230469 14.402344 6.066406 C 14.402344 4.242188 14.964844 3.675781 16.816406 3.675781 C 42.410156 3.671875 68 3.671875 93.59375 3.675781 C 95.378906 3.675781 96.023438 4.242188 96.023438 5.839844 C 96.03125 19.800781 96.027344 33.761719 96.023438 47.722656 C 96.023438 47.792969 96.007812 47.859375 95.972656 48.152344 C 95.664062 47.75 95.445312 47.472656 95.238281 47.191406 C 91.320312 41.792969 87.394531 36.402344 83.492188 30.996094 C 80.320312 26.601562 76.125 23.738281 70.625 22.933594 C 63.773438 21.929688 58.015625 24.046875 53.378906 29.015625 C 52.375 30.09375 51.546875 31.328125 50.628906 32.5 C 49.140625 32.183594 47.632812 31.753906 46.09375 31.554688 C 38.214844 30.53125 31.511719 32.886719 25.921875 38.34375 C 22.160156 42.015625 18.386719 45.675781 14.402344 49.550781 C 14.402344 41.132812 14.402344 32.949219 14.402344 24.660156 M 28.335938 15.109375 C 25.367188 17.28125 24.382812 20.179688 25.535156 23.332031 C 26.65625 26.394531 30.117188 28.3125 33.414062 27.703125 C 36.808594 27.074219 39.371094 24.050781 39.253906 20.816406 C 39.058594 15.453125 33.394531 12.417969 28.335938 15.109375 M 30.347656 7.890625 C 30.347656 8.769531 30.347656 9.652344 30.347656 10.515625 C 31.648438 10.515625 32.773438 10.515625 33.878906 10.515625 C 33.878906 9.347656 33.878906 8.257812 33.878906 7.101562 C 32.863281 7.101562 31.90625 7.066406 30.953125 7.128906 C 30.742188 7.144531 30.550781 7.496094 30.347656 7.890625 M 41.195312 14.570312 C 41.941406 13.875 42.683594 13.183594 43.4375 12.480469 C 42.550781 11.617188 41.730469 10.820312 40.933594 10.046875 C 40.125 10.828125 39.320312 11.601562 38.402344 12.484375 C 39.296875 13.21875 40.179688 13.941406 41.195312 14.570312 M 25.65625 12.152344 C 24.941406 11.382812 24.226562 10.613281 23.589844 9.929688 C 22.574219 10.863281 21.75 11.625 20.980469 12.332031 C 21.804688 13.136719 22.601562 13.910156 23.5 14.78125 C 24.234375 13.960938 24.992188 13.117188 25.65625 12.152344 M 22.410156 27.953125 C 21.902344 28.429688 21.398438 28.902344 20.894531 29.375 C 21.785156 30.242188 22.578125 31.011719 23.285156 31.699219 C 24.082031 30.898438 24.875 30.097656 25.503906 29.460938 C 24.808594 28.75 24.035156 27.960938 23.175781 27.082031 C 22.976562 27.316406 22.746094 27.582031 22.410156 27.953125 M 18.800781 22.625 C 19.679688 22.625 20.554688 22.625 21.429688 22.625 C 21.429688 21.421875 21.429688 20.335938 21.429688 19.28125 C 20.238281 19.28125 19.117188 19.28125 17.972656 19.28125 C 17.972656 20.25 17.9375 21.152344 18.003906 22.050781 C 18.015625 22.253906 18.382812 22.433594 18.800781 22.625 Z M 18.800781 22.625 "/>
<path style=" stroke:none;fill-rule:nonzero;fill:rgb(58.039216%,61.568627%,65.882353%);fill-opacity:1;" d="M 77.773438 93.410156 C 55.003906 93.410156 32.339844 93.410156 9.679688 93.40625 C 6.695312 93.40625 4.289062 91.867188 3.960938 89.378906 C 3.6875 87.332031 3.902344 85.226562 3.902344 83.085938 C 38.109375 83.085938 72.316406 83.085938 106.527344 83.085938 C 106.527344 85.222656 106.734375 87.324219 106.472656 89.371094 C 106.160156 91.796875 103.773438 93.398438 100.972656 93.40625 C 94.277344 93.417969 87.582031 93.410156 80.886719 93.410156 C 79.886719 93.410156 78.882812 93.410156 77.773438 93.410156 M 85.503906 86.566406 C 85.433594 87.648438 85.367188 88.730469 85.292969 89.871094 C 86.59375 89.871094 87.710938 89.871094 88.863281 89.871094 C 88.863281 88.730469 88.863281 87.644531 88.863281 86.515625 C 87.757812 86.515625 86.726562 86.515625 85.503906 86.566406 M 96.03125 88.902344 C 96.03125 88.121094 96.03125 87.339844 96.03125 86.582031 C 94.761719 86.582031 93.644531 86.582031 92.511719 86.582031 C 92.511719 87.714844 92.511719 88.773438 92.511719 89.929688 C 93.457031 89.929688 94.34375 89.890625 95.222656 89.945312 C 95.910156 89.984375 96.125 89.71875 96.03125 88.902344 M 102.769531 89.921875 C 102.878906 89.851562 103.085938 89.78125 103.085938 89.710938 C 103.109375 88.652344 103.101562 87.597656 103.101562 86.589844 C 101.84375 86.589844 100.726562 86.589844 99.542969 86.589844 C 99.542969 87.1875 99.542969 87.703125 99.542969 88.21875 C 99.542969 88.761719 99.542969 89.300781 99.542969 89.929688 C 100.648438 89.929688 101.605469 89.929688 102.769531 89.921875 Z M 102.769531 89.921875 "/>
<path style=" stroke:none;fill-rule:nonzero;fill:rgb(54.509804%,75.294118%,32.156863%);fill-opacity:1;" d="M 85.722656 52.003906 C 82 52.003906 78.382812 51.984375 74.769531 52.019531 C 74.03125 52.027344 73.507812 51.824219 72.984375 51.308594 C 68.679688 47.082031 64.386719 42.835938 59.996094 38.6875 C 58.160156 36.953125 56.101562 35.445312 54.109375 33.804688 C 57.390625 28.753906 62.109375 25.84375 68.550781 26.167969 C 73.40625 26.410156 77.316406 28.578125 80.148438 32.421875 C 84.792969 38.734375 89.363281 45.089844 93.964844 51.429688 C 94.0625 51.5625 94.125 51.71875 94.28125 52.003906 C 91.378906 52.003906 88.605469 52.003906 85.722656 52.003906 Z M 85.722656 52.003906 "/>
<path style=" stroke:none;fill-rule:nonzero;fill:rgb(62.352941%,82.745098%,40.392157%);fill-opacity:1;" d="M 66.265625 49.648438 C 67.078125 50.371094 67.835938 51.039062 68.589844 51.707031 C 68.527344 51.789062 68.464844 51.867188 68.398438 51.949219 C 51.34375 51.949219 34.285156 51.949219 17.035156 51.949219 C 17.316406 51.644531 17.523438 51.402344 17.746094 51.183594 C 21.367188 47.660156 24.976562 44.132812 28.609375 40.621094 C 36.742188 32.753906 48.777344 32.738281 56.941406 40.585938 C 60.050781 43.574219 63.121094 46.589844 66.265625 49.648438 Z M 66.265625 49.648438 "/>
<path style=" stroke:none;fill-rule:nonzero;fill:rgb(39.215686%,41.960784%,46.27451%);fill-opacity:1;" d="M 38.671875 103.714844 C 37.644531 103.714844 36.726562 103.714844 35.6875 103.714844 C 35.6875 101.507812 35.671875 99.429688 35.707031 97.351562 C 35.710938 97.171875 36 96.921875 36.210938 96.84375 C 36.464844 96.753906 36.777344 96.8125 37.0625 96.8125 C 49.164062 96.8125 61.265625 96.8125 73.367188 96.8125 C 74.75 96.8125 74.75 96.816406 74.75 98.183594 C 74.75 99.988281 74.75 101.789062 74.75 103.714844 C 62.675781 103.714844 50.726562 103.714844 38.671875 103.714844 Z M 38.671875 103.714844 "/>
<path style=" stroke:none;fill-rule:nonzero;fill:rgb(96.078431%,81.960784%,42.745098%);fill-opacity:1;" d="M 53.457031 71.457031 C 53.457031 70.699219 53.457031 70.042969 53.457031 69.300781 C 54.625 69.300781 55.738281 69.300781 56.910156 69.300781 C 56.910156 70.410156 56.910156 71.5 56.910156 72.652344 C 55.796875 72.652344 54.707031 72.652344 53.457031 72.652344 C 53.457031 72.289062 53.457031 71.925781 53.457031 71.457031 Z M 53.457031 71.457031 "/>
<path style=" stroke:none;fill-rule:nonzero;fill:rgb(1.568627%,1.176471%,1.176471%);fill-opacity:1;" d="M 28.40625 15.074219 C 33.394531 12.417969 39.058594 15.453125 39.253906 20.816406 C 39.371094 24.050781 36.808594 27.074219 33.414062 27.703125 C 30.117188 28.3125 26.65625 26.394531 25.535156 23.332031 C 24.382812 20.179688 25.367188 17.28125 28.40625 15.074219 M 31.75 17.523438 C 28.882812 18.011719 27.636719 21 29.429688 23.101562 C 30.476562 24.328125 32.230469 24.707031 33.6875 24.011719 C 35.148438 23.320312 35.957031 21.722656 35.617188 20.199219 C 35.253906 18.566406 33.882812 17.566406 31.75 17.523438 Z M 31.75 17.523438 "/>
<path style=" stroke:none;fill-rule:nonzero;fill:rgb(4.705882%,4.705882%,4.705882%);fill-opacity:1;" d="M 30.347656 7.789062 C 30.550781 7.496094 30.742188 7.144531 30.953125 7.128906 C 31.90625 7.066406 32.863281 7.101562 33.878906 7.101562 C 33.878906 8.257812 33.878906 9.347656 33.878906 10.515625 C 32.773438 10.515625 31.648438 10.515625 30.347656 10.515625 C 30.347656 9.652344 30.347656 8.769531 30.347656 7.789062 Z M 30.347656 7.789062 "/>
<path style=" stroke:none;fill-rule:nonzero;fill:rgb(1.568627%,1.568627%,1.568627%);fill-opacity:1;" d="M 41.128906 14.617188 C 40.179688 13.941406 39.296875 13.21875 38.402344 12.484375 C 39.320312 11.601562 40.125 10.828125 40.933594 10.046875 C 41.730469 10.820312 42.550781 11.617188 43.4375 12.480469 C 42.683594 13.183594 41.941406 13.875 41.128906 14.617188 Z M 41.128906 14.617188 "/>
<path style=" stroke:none;fill-rule:nonzero;fill:rgb(2.745098%,3.137255%,3.137255%);fill-opacity:1;" d="M 25.703125 12.214844 C 24.992188 13.117188 24.234375 13.960938 23.5 14.78125 C 22.601562 13.910156 21.804688 13.136719 20.980469 12.332031 C 21.75 11.625 22.574219 10.863281 23.589844 9.929688 C 24.226562 10.613281 24.941406 11.382812 25.703125 12.214844 Z M 25.703125 12.214844 "/>
<path style=" stroke:none;fill-rule:nonzero;fill:rgb(1.176471%,1.176471%,1.176471%);fill-opacity:1;" d="M 22.464844 27.902344 C 22.746094 27.582031 22.976562 27.316406 23.175781 27.082031 C 24.035156 27.960938 24.808594 28.75 25.503906 29.460938 C 24.875 30.097656 24.082031 30.898438 23.285156 31.699219 C 22.578125 31.011719 21.785156 30.242188 20.894531 29.375 C 21.398438 28.902344 21.902344 28.429688 22.464844 27.902344 Z M 22.464844 27.902344 "/>
<path style=" stroke:none;fill-rule:nonzero;fill:rgb(0%,0%,0%);fill-opacity:1;" d="M 18.695312 22.625 C 18.382812 22.433594 18.015625 22.253906 18.003906 22.050781 C 17.9375 21.152344 17.972656 20.25 17.972656 19.28125 C 19.117188 19.28125 20.238281 19.28125 21.429688 19.28125 C 21.429688 20.335938 21.429688 21.421875 21.429688 22.625 C 20.554688 22.625 19.679688 22.625 18.695312 22.625 Z M 18.695312 22.625 "/>
<path style=" stroke:none;fill-rule:nonzero;fill:rgb(1.568627%,1.568627%,1.960784%);fill-opacity:1;" d="M 85.601562 86.539062 C 86.726562 86.515625 87.757812 86.515625 88.863281 86.515625 C 88.863281 87.644531 88.863281 88.730469 88.863281 89.871094 C 87.710938 89.871094 86.59375 89.871094 85.292969 89.871094 C 85.367188 88.730469 85.433594 87.648438 85.601562 86.539062 Z M 85.601562 86.539062 "/>
<path style=" stroke:none;fill-rule:nonzero;fill:rgb(1.568627%,1.568627%,1.960784%);fill-opacity:1;" d="M 96.03125 89.003906 C 96.125 89.71875 95.910156 89.984375 95.222656 89.945312 C 94.34375 89.890625 93.457031 89.929688 92.511719 89.929688 C 92.511719 88.773438 92.511719 87.714844 92.511719 86.582031 C 93.644531 86.582031 94.761719 86.582031 96.03125 86.582031 C 96.03125 87.339844 96.03125 88.121094 96.03125 89.003906 Z M 96.03125 89.003906 "/>
<path style=" stroke:none;fill-rule:nonzero;fill:rgb(1.568627%,1.568627%,1.960784%);fill-opacity:1;" d="M 102.664062 89.925781 C 101.605469 89.929688 100.648438 89.929688 99.542969 89.929688 C 99.542969 89.300781 99.542969 88.761719 99.542969 88.21875 C 99.542969 87.703125 99.542969 87.1875 99.542969 86.589844 C 100.726562 86.589844 101.84375 86.589844 103.101562 86.589844 C 103.101562 87.597656 103.109375 88.652344 103.085938 89.710938 C 103.085938 89.78125 102.878906 89.851562 102.664062 89.925781 Z M 102.664062 89.925781 "/>
<path style=" stroke:none;fill-rule:nonzero;fill:rgb(97.647059%,83.137255%,43.529412%);fill-opacity:1;" d="M 31.84375 17.515625 C 33.882812 17.566406 35.253906 18.566406 35.617188 20.199219 C 35.957031 21.722656 35.148438 23.320312 33.6875 24.011719 C 32.230469 24.707031 30.476562 24.328125 29.429688 23.101562 C 27.636719 21 28.882812 18.011719 31.84375 17.515625 Z M 31.84375 17.515625 "/>
</g>
</svg>
