<?xml version="1.0" encoding="UTF-8"?>
<svg xmlns="http://www.w3.org/2000/svg" xmlns:xlink="http://www.w3.org/1999/xlink" width="110px" height="107px" viewBox="0 0 110 107" version="1.1">
<g id="surface1">
<path style="fill-rule:nonzero;fill:rgb(27.058824%,35.294118%,39.215686%);fill-opacity:1;stroke-width:1;stroke-linecap:round;stroke-linejoin:round;stroke:rgb(25.882353%,25.882353%,25.882353%);stroke-opacity:1;stroke-miterlimit:10;" d="M 52.499858 50.500037 L 4.499183 50.500037 C 2.800888 50.500037 1.499006 49.199511 1.499006 47.500365 L 1.499006 8.500183 C 1.499006 6.801037 2.800888 5.500511 4.499183 5.500511 L 52.499858 5.500511 C 54.20032 5.500511 55.500036 6.801037 55.500036 8.500183 L 55.500036 47.500365 C 55.500036 49.199511 54.20032 50.500037 52.499858 50.500037 Z M 52.499858 50.500037 " transform="matrix(1.803279,0,0,1.754098,0,0)"/>
<path style="fill-rule:nonzero;fill:rgb(69.019608%,74.509804%,77.254902%);fill-opacity:1;stroke-width:1;stroke-linecap:round;stroke-linejoin:round;stroke:rgb(25.882353%,25.882353%,25.882353%);stroke-opacity:1;stroke-miterlimit:10;" d="M 52.499858 5.500511 L 4.499183 5.500511 C 2.800888 5.500511 1.499006 6.801037 1.499006 8.500183 L 1.499006 15.499416 L 55.500036 15.499416 L 55.500036 8.500183 C 55.500036 6.801037 54.20032 5.500511 52.499858 5.500511 Z M 52.499858 5.500511 " transform="matrix(1.803279,0,0,1.754098,0,0)"/>
<path style="fill-rule:nonzero;fill:rgb(69.019608%,74.509804%,77.254902%);fill-opacity:1;stroke-width:1;stroke-linecap:round;stroke-linejoin:round;stroke:rgb(25.882353%,25.882353%,25.882353%);stroke-opacity:1;stroke-miterlimit:10;" d="M 4.499183 50.500037 L 52.499858 50.500037 C 54.20032 50.500037 55.500036 49.199511 55.500036 47.500365 L 55.500036 40.498905 L 1.499006 40.498905 L 1.499006 47.500365 C 1.499006 49.199511 2.800888 50.500037 4.499183 50.500037 Z M 4.499183 50.500037 " transform="matrix(1.803279,0,0,1.754098,0,0)"/>
<path style="fill-rule:nonzero;fill:rgb(32.941176%,43.137255%,47.843137%);fill-opacity:1;stroke-width:1;stroke-linecap:round;stroke-linejoin:round;stroke:rgb(25.882353%,25.882353%,25.882353%);stroke-opacity:1;stroke-miterlimit:10;" d="M 56.500817 50.500037 L 8.500142 50.500037 C 6.79968 50.500037 5.499964 49.199511 5.499964 47.500365 L 5.499964 8.500183 C 5.499964 6.801037 6.79968 5.500511 8.500142 5.500511 L 56.500817 5.500511 C 58.199112 5.500511 59.500994 6.801037 59.500994 8.500183 L 59.500994 47.500365 C 59.500994 49.199511 58.199112 50.500037 56.500817 50.500037 Z M 56.500817 50.500037 " transform="matrix(1.803279,0,0,1.754098,0,0)"/>
<path style="fill:none;stroke-width:1;stroke-linecap:round;stroke-linejoin:round;stroke:rgb(47.058824%,56.470588%,61.176471%);stroke-opacity:1;stroke-miterlimit:10;" d="M 7.499361 47.500365 L 7.499361 8.500183 " transform="matrix(1.803279,0,0,1.754098,0,0)"/>
<path style="fill-rule:nonzero;fill:rgb(81.176471%,84.705882%,86.27451%);fill-opacity:1;stroke-width:1;stroke-linecap:round;stroke-linejoin:round;stroke:rgb(25.882353%,25.882353%,25.882353%);stroke-opacity:1;stroke-miterlimit:10;" d="M 56.500817 5.500511 L 8.500142 5.500511 C 6.79968 5.500511 5.499964 6.801037 5.499964 8.500183 L 5.499964 15.499416 L 59.500994 15.499416 L 59.500994 8.500183 C 59.500994 6.801037 58.199112 5.500511 56.500817 5.500511 Z M 56.500817 5.500511 " transform="matrix(1.803279,0,0,1.754098,0,0)"/>
<path style="fill-rule:nonzero;fill:rgb(27.058824%,35.294118%,39.215686%);fill-opacity:1;stroke-width:1;stroke-linecap:round;stroke-linejoin:round;stroke:rgb(25.882353%,25.882353%,25.882353%);stroke-opacity:1;stroke-miterlimit:10;" d="M 14.000107 13.000803 L 10.999929 13.000803 C 10.399893 13.000803 9.999148 12.599956 9.999148 12.000913 L 9.999148 8.999014 C 9.999148 8.399971 10.399893 7.999124 10.999929 7.999124 L 14.000107 7.999124 C 14.600142 7.999124 15.000888 8.399971 15.000888 8.999014 L 15.000888 12.000913 C 15.000888 12.599956 14.600142 13.000803 14.000107 13.000803 Z M 14.000107 13.000803 " transform="matrix(1.803279,0,0,1.754098,0,0)"/>
<path style="fill-rule:nonzero;fill:rgb(27.058824%,35.294118%,39.215686%);fill-opacity:1;stroke-width:1;stroke-linecap:round;stroke-linejoin:round;stroke:rgb(25.882353%,25.882353%,25.882353%);stroke-opacity:1;stroke-miterlimit:10;" d="M 23.999254 13.000803 L 20.999077 13.000803 C 20.399041 13.000803 20.000462 12.599956 20.000462 12.000913 L 20.000462 8.999014 C 20.000462 8.399971 20.399041 7.999124 20.999077 7.999124 L 23.999254 7.999124 C 24.59929 7.999124 25.000036 8.399971 25.000036 8.999014 L 25.000036 12.000913 C 25.000036 12.599956 24.59929 13.000803 23.999254 13.000803 Z M 23.999254 13.000803 " transform="matrix(1.803279,0,0,1.754098,0,0)"/>
<path style="fill-rule:nonzero;fill:rgb(27.058824%,35.294118%,39.215686%);fill-opacity:1;stroke-width:1;stroke-linecap:round;stroke-linejoin:round;stroke:rgb(25.882353%,25.882353%,25.882353%);stroke-opacity:1;stroke-miterlimit:10;" d="M 34.000568 13.000803 L 31.000391 13.000803 C 30.400355 13.000803 29.999609 12.599956 29.999609 12.000913 L 29.999609 8.999014 C 29.999609 8.399971 30.400355 7.999124 31.000391 7.999124 L 34.000568 7.999124 C 34.600604 7.999124 34.999183 8.399971 34.999183 8.999014 L 34.999183 12.000913 C 34.999183 12.599956 34.600604 13.000803 34.000568 13.000803 Z M 34.000568 13.000803 " transform="matrix(1.803279,0,0,1.754098,0,0)"/>
<path style="fill-rule:nonzero;fill:rgb(27.058824%,35.294118%,39.215686%);fill-opacity:1;stroke-width:1;stroke-linecap:round;stroke-linejoin:round;stroke:rgb(25.882353%,25.882353%,25.882353%);stroke-opacity:1;stroke-miterlimit:10;" d="M 43.999716 13.000803 L 40.999538 13.000803 C 40.399503 13.000803 40.000923 12.599956 40.000923 12.000913 L 40.000923 8.999014 C 40.000923 8.399971 40.399503 7.999124 40.999538 7.999124 L 43.999716 7.999124 C 44.599751 7.999124 45.000497 8.399971 45.000497 8.999014 L 45.000497 12.000913 C 45.000497 12.599956 44.599751 13.000803 43.999716 13.000803 Z M 43.999716 13.000803 " transform="matrix(1.803279,0,0,1.754098,0,0)"/>
<path style="fill-rule:nonzero;fill:rgb(27.058824%,35.294118%,39.215686%);fill-opacity:1;stroke-width:1;stroke-linecap:round;stroke-linejoin:round;stroke:rgb(25.882353%,25.882353%,25.882353%);stroke-opacity:1;stroke-miterlimit:10;" d="M 54.00103 13.000803 L 51.000852 13.000803 C 50.400817 13.000803 50.000071 12.599956 50.000071 12.000913 L 50.000071 8.999014 C 50.000071 8.399971 50.400817 7.999124 51.000852 7.999124 L 54.00103 7.999124 C 54.601065 7.999124 54.999645 8.399971 54.999645 8.999014 L 54.999645 12.000913 C 54.999645 12.599956 54.601065 13.000803 54.00103 13.000803 Z M 54.00103 13.000803 " transform="matrix(1.803279,0,0,1.754098,0,0)"/>
<path style="fill-rule:nonzero;fill:rgb(81.176471%,84.705882%,86.27451%);fill-opacity:1;stroke-width:1;stroke-linecap:round;stroke-linejoin:round;stroke:rgb(25.882353%,25.882353%,25.882353%);stroke-opacity:1;stroke-miterlimit:10;" d="M 8.500142 50.500037 L 56.500817 50.500037 C 58.199112 50.500037 59.500994 49.199511 59.500994 47.500365 L 59.500994 40.498905 L 5.499964 40.498905 L 5.499964 47.500365 C 5.499964 49.199511 6.79968 50.500037 8.500142 50.500037 Z M 8.500142 50.500037 " transform="matrix(1.803279,0,0,1.754098,0,0)"/>
<path style="fill-rule:nonzero;fill:rgb(27.058824%,35.294118%,39.215686%);fill-opacity:1;stroke-width:1;stroke-linecap:round;stroke-linejoin:round;stroke:rgb(25.882353%,25.882353%,25.882353%);stroke-opacity:1;stroke-miterlimit:10;" d="M 51.000852 42.999744 L 54.00103 42.999744 C 54.601065 42.999744 54.999645 43.400591 54.999645 43.999635 L 54.999645 46.999306 C 54.999645 47.600577 54.601065 47.999197 54.00103 47.999197 L 51.000852 47.999197 C 50.400817 47.999197 50.000071 47.600577 50.000071 46.999306 L 50.000071 43.999635 C 50.000071 43.400591 50.400817 42.999744 51.000852 42.999744 Z M 51.000852 42.999744 " transform="matrix(1.803279,0,0,1.754098,0,0)"/>
<path style="fill-rule:nonzero;fill:rgb(27.058824%,35.294118%,39.215686%);fill-opacity:1;stroke-width:1;stroke-linecap:round;stroke-linejoin:round;stroke:rgb(25.882353%,25.882353%,25.882353%);stroke-opacity:1;stroke-miterlimit:10;" d="M 40.999538 42.999744 L 43.999716 42.999744 C 44.599751 42.999744 45.000497 43.400591 45.000497 43.999635 L 45.000497 46.999306 C 45.000497 47.600577 44.599751 47.999197 43.999716 47.999197 L 40.999538 47.999197 C 40.399503 47.999197 40.000923 47.600577 40.000923 46.999306 L 40.000923 43.999635 C 40.000923 43.400591 40.399503 42.999744 40.999538 42.999744 Z M 40.999538 42.999744 " transform="matrix(1.803279,0,0,1.754098,0,0)"/>
<path style="fill-rule:nonzero;fill:rgb(27.058824%,35.294118%,39.215686%);fill-opacity:1;stroke-width:1;stroke-linecap:round;stroke-linejoin:round;stroke:rgb(25.882353%,25.882353%,25.882353%);stroke-opacity:1;stroke-miterlimit:10;" d="M 31.000391 42.999744 L 34.000568 42.999744 C 34.600604 42.999744 34.999183 43.400591 34.999183 43.999635 L 34.999183 46.999306 C 34.999183 47.600577 34.600604 47.999197 34.000568 47.999197 L 31.000391 47.999197 C 30.400355 47.999197 29.999609 47.600577 29.999609 46.999306 L 29.999609 43.999635 C 29.999609 43.400591 30.400355 42.999744 31.000391 42.999744 Z M 31.000391 42.999744 " transform="matrix(1.803279,0,0,1.754098,0,0)"/>
<path style="fill-rule:nonzero;fill:rgb(27.058824%,35.294118%,39.215686%);fill-opacity:1;stroke-width:1;stroke-linecap:round;stroke-linejoin:round;stroke:rgb(25.882353%,25.882353%,25.882353%);stroke-opacity:1;stroke-miterlimit:10;" d="M 20.999077 42.999744 L 23.999254 42.999744 C 24.59929 42.999744 25.000036 43.400591 25.000036 43.999635 L 25.000036 46.999306 C 25.000036 47.600577 24.59929 47.999197 23.999254 47.999197 L 20.999077 47.999197 C 20.399041 47.999197 20.000462 47.600577 20.000462 46.999306 L 20.000462 43.999635 C 20.000462 43.400591 20.399041 42.999744 20.999077 42.999744 Z M 20.999077 42.999744 " transform="matrix(1.803279,0,0,1.754098,0,0)"/>
<path style="fill-rule:nonzero;fill:rgb(27.058824%,35.294118%,39.215686%);fill-opacity:1;stroke-width:1;stroke-linecap:round;stroke-linejoin:round;stroke:rgb(25.882353%,25.882353%,25.882353%);stroke-opacity:1;stroke-miterlimit:10;" d="M 10.999929 42.999744 L 14.000107 42.999744 C 14.600142 42.999744 15.000888 43.400591 15.000888 43.999635 L 15.000888 46.999306 C 15.000888 47.600577 14.600142 47.999197 14.000107 47.999197 L 10.999929 47.999197 C 10.399893 47.999197 9.999148 47.600577 9.999148 46.999306 L 9.999148 43.999635 C 9.999148 43.400591 10.399893 42.999744 10.999929 42.999744 Z M 10.999929 42.999744 " transform="matrix(1.803279,0,0,1.754098,0,0)"/>
<path style="fill:none;stroke-width:1;stroke-linecap:round;stroke-linejoin:round;stroke:rgb(25.882353%,25.882353%,25.882353%);stroke-opacity:1;stroke-miterlimit:10;" d="M 42.50071 0.501059 L 42.50071 3.50073 " transform="matrix(1.803279,0,0,1.754098,0,0)"/>
<path style="fill:none;stroke-width:1;stroke-linecap:round;stroke-linejoin:round;stroke:rgb(25.882353%,25.882353%,25.882353%);stroke-opacity:1;stroke-miterlimit:10;" d="M 42.50071 6.999233 L 42.50071 14.000694 " transform="matrix(1.803279,0,0,1.754098,0,0)"/>
<path style="fill:none;stroke-width:1;stroke-linecap:round;stroke-linejoin:round;stroke:rgb(25.882353%,25.882353%,25.882353%);stroke-opacity:1;stroke-miterlimit:10;" d="M 42.50071 17.499197 L 42.50071 23.500767 " transform="matrix(1.803279,0,0,1.754098,0,0)"/>
<path style="fill:none;stroke-width:1;stroke-linecap:round;stroke-linejoin:round;stroke:rgb(92.54902%,93.72549%,94.509804%);stroke-opacity:1;stroke-miterlimit:10;" d="M 7.499361 15.499416 L 7.499361 8.500183 " transform="matrix(1.803279,0,0,1.754098,0,0)"/>
<path style="fill:none;stroke-width:1;stroke-linecap:round;stroke-linejoin:round;stroke:rgb(92.54902%,93.72549%,94.509804%);stroke-opacity:1;stroke-miterlimit:10;" d="M 7.499361 47.500365 L 7.499361 40.498905 " transform="matrix(1.803279,0,0,1.754098,0,0)"/>
<path style="fill:none;stroke-width:1;stroke-linecap:round;stroke-linejoin:round;stroke:rgb(27.058824%,35.294118%,39.215686%);stroke-opacity:1;stroke-miterlimit:10;" d="M 57.499432 47.999197 L 57.499432 8.999014 " transform="matrix(1.803279,0,0,1.754098,0,0)"/>
<path style="fill:none;stroke-width:1;stroke-linecap:round;stroke-linejoin:round;stroke:rgb(56.470588%,64.313725%,68.235294%);stroke-opacity:1;stroke-miterlimit:10;" d="M 57.499432 15.499416 L 57.499432 8.500183 " transform="matrix(1.803279,0,0,1.754098,0,0)"/>
<path style="fill:none;stroke-width:1;stroke-linecap:round;stroke-linejoin:round;stroke:rgb(56.470588%,64.313725%,68.235294%);stroke-opacity:1;stroke-miterlimit:10;" d="M 57.499432 47.999197 L 57.499432 40.999963 " transform="matrix(1.803279,0,0,1.754098,0,0)"/>
<path style="fill:none;stroke-width:1;stroke-linecap:round;stroke-linejoin:round;stroke:rgb(25.882353%,25.882353%,25.882353%);stroke-opacity:1;stroke-miterlimit:10;" d="M 56.500817 5.500511 L 8.500142 5.500511 C 6.79968 5.500511 5.499964 6.801037 5.499964 8.500183 L 5.499964 15.499416 L 59.500994 15.499416 L 59.500994 8.500183 C 59.500994 6.801037 58.199112 5.500511 56.500817 5.500511 Z M 56.500817 5.500511 " transform="matrix(1.803279,0,0,1.754098,0,0)"/>
<path style="fill:none;stroke-width:1;stroke-linecap:round;stroke-linejoin:round;stroke:rgb(25.882353%,25.882353%,25.882353%);stroke-opacity:1;stroke-miterlimit:10;" d="M 8.500142 50.500037 L 56.500817 50.500037 C 58.199112 50.500037 59.500994 49.199511 59.500994 47.500365 L 59.500994 40.498905 L 5.499964 40.498905 L 5.499964 47.500365 C 5.499964 49.199511 6.79968 50.500037 8.500142 50.500037 Z M 8.500142 50.500037 " transform="matrix(1.803279,0,0,1.754098,0,0)"/>
<path style="fill-rule:nonzero;fill:rgb(47.058824%,56.470588%,61.176471%);fill-opacity:1;stroke-width:1;stroke-linecap:round;stroke-linejoin:round;stroke:rgb(25.882353%,25.882353%,25.882353%);stroke-opacity:1;stroke-miterlimit:10;" d="M 43.800426 37.599445 L 38.300462 39.899861 L 30.798935 21.899606 C 29.999609 19.899825 30.900746 17.499197 32.999787 16.69973 L 34.799893 15.900263 Z M 43.800426 37.599445 " transform="matrix(1.803279,0,0,1.754098,0,0)"/>
<path style="fill-rule:nonzero;fill:rgb(69.019608%,74.509804%,77.254902%);fill-opacity:1;stroke-width:1;stroke-linecap:round;stroke-linejoin:round;stroke:rgb(25.882353%,25.882353%,25.882353%);stroke-opacity:1;stroke-miterlimit:10;" d="M 44.300817 37.399022 L 40.600959 38.899971 L 33.099432 20.899715 C 32.300107 18.899934 33.199077 16.499306 35.300284 15.699839 Z M 44.300817 37.399022 " transform="matrix(1.803279,0,0,1.754098,0,0)"/>
<path style="fill-rule:nonzero;fill:rgb(92.54902%,25.098039%,47.843137%);fill-opacity:1;stroke-width:1;stroke-linecap:round;stroke-linejoin:round;stroke:rgb(25.882353%,25.882353%,25.882353%);stroke-opacity:1;stroke-miterlimit:10;" d="M 48.700355 47.999197 L 44.300817 37.399022 L 38.300462 39.899861 L 45.199787 56.499379 C 46.599148 59.799686 50.400817 61.400847 53.699929 60.00011 C 56.999041 58.599372 58.599858 54.800234 57.200497 51.499927 C 55.79897 48.19962 51.999467 46.600686 48.700355 47.999197 Z M 52.499858 57.200862 C 50.699751 57.900117 48.700355 57.10065 47.90103 55.299065 C 47.199183 53.499708 48.000675 51.499927 49.800781 50.70046 C 51.600888 49.998978 53.600284 50.800672 54.399609 52.600029 C 55.198935 54.399387 54.299964 56.499379 52.499858 57.200862 Z M 52.499858 57.200862 " transform="matrix(1.803279,0,0,1.754098,0,0)"/>
<path style="fill-rule:nonzero;fill:rgb(47.058824%,56.470588%,61.176471%);fill-opacity:1;stroke-width:1;stroke-linecap:round;stroke-linejoin:round;stroke:rgb(25.882353%,25.882353%,25.882353%);stroke-opacity:1;stroke-miterlimit:10;" d="M 41.200994 37.599445 L 46.700959 39.899861 L 54.20032 21.899606 C 54.999645 19.899825 54.100675 17.499197 51.999467 16.69973 L 50.199361 15.900263 Z M 41.200994 37.599445 " transform="matrix(1.803279,0,0,1.754098,0,0)"/>
<path style="fill-rule:nonzero;fill:rgb(69.019608%,74.509804%,77.254902%);fill-opacity:1;stroke-width:1;stroke-linecap:round;stroke-linejoin:round;stroke:rgb(25.882353%,25.882353%,25.882353%);stroke-opacity:1;stroke-miterlimit:10;" d="M 40.700604 37.399022 L 44.400462 38.899971 L 51.899822 20.899715 C 52.699148 18.899934 51.800178 16.499306 49.69897 15.699839 Z M 40.700604 37.399022 " transform="matrix(1.803279,0,0,1.754098,0,0)"/>
<path style="fill-rule:nonzero;fill:rgb(92.54902%,25.098039%,47.843137%);fill-opacity:1;stroke-width:1;stroke-linecap:round;stroke-linejoin:round;stroke:rgb(25.882353%,25.882353%,25.882353%);stroke-opacity:1;stroke-miterlimit:10;" d="M 27.800923 51.499927 C 26.399396 54.800234 28.000213 58.599372 31.299325 60.00011 C 34.600604 61.400847 38.400107 59.799686 39.799467 56.499379 L 46.700959 39.899861 L 40.700604 37.399022 L 36.301065 47.999197 C 32.999787 46.600686 29.200284 48.19962 27.800923 51.499927 Z M 30.599645 52.700241 C 31.299325 50.900883 33.400533 50.09919 35.200639 50.800672 C 37.000746 51.499927 37.800071 53.59992 37.100391 55.399277 C 36.40071 57.200862 34.299503 58.000329 32.499396 57.301073 C 30.69929 56.499379 29.80032 54.399387 30.599645 52.700241 Z M 30.599645 52.700241 " transform="matrix(1.803279,0,0,1.754098,0,0)"/>
<path style="fill-rule:nonzero;fill:rgb(92.54902%,25.098039%,47.843137%);fill-opacity:1;stroke-width:1;stroke-linecap:round;stroke-linejoin:round;stroke:rgb(25.882353%,25.882353%,25.882353%);stroke-opacity:1;stroke-miterlimit:10;" d="M 47.799219 38.899971 C 47.799219 41.661361 45.561541 43.899423 42.799645 43.899423 C 40.037749 43.899423 37.800071 41.661361 37.800071 38.899971 C 37.800071 36.138581 40.037749 33.900518 42.799645 33.900518 C 45.561541 33.900518 47.799219 36.138581 47.799219 38.899971 Z M 47.799219 38.899971 " transform="matrix(1.803279,0,0,1.754098,0,0)"/>
<path style="fill:none;stroke-width:1;stroke-linecap:round;stroke-linejoin:round;stroke:rgb(95.686275%,56.078431%,69.411765%);stroke-opacity:1;stroke-miterlimit:10;" d="M 39.799467 38.899971 C 39.799467 37.200825 41.099183 35.900299 42.799645 35.900299 " transform="matrix(1.803279,0,0,1.754098,0,0)"/>
</g>
</svg>
