<?xml version="1.0" encoding="UTF-8"?>
<svg xmlns="http://www.w3.org/2000/svg" xmlns:xlink="http://www.w3.org/1999/xlink" width="110px" height="107px" viewBox="0 0 110 107" version="1.1">
<g id="surface1">
<path style=" stroke:none;fill-rule:nonzero;fill:rgb(74.117647%,84.313725%,94.117647%);fill-opacity:1;" d="M 2.4375 10.882812 L 2.4375 81.945312 C 2.4375 85.175781 5.125 87.792969 8.445312 87.792969 L 101.617188 87.792969 C 104.9375 87.792969 107.628906 85.175781 107.628906 81.945312 L 107.628906 10.882812 C 107.628906 6.699219 104.144531 3.3125 99.847656 3.3125 L 10.21875 3.3125 C 5.921875 3.3125 2.4375 6.699219 2.4375 10.882812 Z M 2.4375 10.882812 "/>
<path style=" stroke:none;fill-rule:nonzero;fill:rgb(100%,100%,100%);fill-opacity:1;" d="M 9.003906 76.300781 L 9.003906 10.796875 C 9.003906 10.191406 9.546875 9.699219 10.21875 9.699219 L 99.847656 9.699219 C 100.515625 9.699219 101.058594 10.191406 101.058594 10.796875 L 101.058594 76.300781 Z M 9.003906 76.300781 "/>
<path style=" stroke:none;fill-rule:nonzero;fill:rgb(100%,100%,100%);fill-opacity:1;" d="M 17.210938 24.769531 L 92.851562 24.769531 L 92.851562 68.316406 L 17.210938 68.316406 Z M 17.210938 24.769531 "/>
<path style=" stroke:none;fill-rule:nonzero;fill:rgb(96.470588%,58.823529%,54.117647%);fill-opacity:1;" d="M 24.015625 44.023438 L 40.070312 44.023438 L 40.070312 65.472656 L 24.015625 65.472656 Z M 24.015625 44.023438 "/>
<path style=" stroke:none;fill-rule:nonzero;fill:rgb(100%,100%,100%);fill-opacity:1;" d="M 45.566406 42.078125 L 87.925781 42.078125 L 87.925781 63.527344 L 45.566406 63.527344 Z M 45.566406 42.078125 "/>
<path style=" stroke:none;fill-rule:nonzero;fill:rgb(74.117647%,84.313725%,94.117647%);fill-opacity:1;" d="M 23.796875 31.140625 L 89.585938 31.140625 L 89.585938 38.699219 L 23.796875 38.699219 Z M 23.796875 31.140625 "/>
<path style=" stroke:none;fill-rule:nonzero;fill:rgb(28.235294%,62.745098%,85.098039%);fill-opacity:1;" d="M 17.210938 17.683594 L 92.851562 17.683594 L 92.851562 24.769531 L 17.210938 24.769531 Z M 17.210938 17.683594 "/>
<path style=" stroke:none;fill-rule:nonzero;fill:rgb(74.117647%,84.313725%,94.117647%);fill-opacity:1;" d="M 76.371094 103.6875 L 33.585938 103.6875 L 36.460938 96.246094 L 73.5 96.246094 Z M 76.371094 103.6875 "/>
<path style=" stroke:none;fill-rule:nonzero;fill:rgb(28.235294%,62.745098%,85.098039%);fill-opacity:1;" d="M 107.582031 76.300781 L 107.582031 81.9375 C 107.582031 85.179688 104.890625 87.800781 101.554688 87.800781 L 8.386719 87.800781 C 5.070312 87.800781 2.375 85.179688 2.375 81.9375 L 2.375 76.300781 Z M 107.582031 76.300781 "/>
<path style=" stroke:none;fill-rule:nonzero;fill:rgb(100%,100%,100%);fill-opacity:1;" d="M 58.066406 82.035156 C 58.066406 83.710938 56.6875 85.050781 54.980469 85.050781 C 53.269531 85.050781 51.894531 83.710938 51.894531 82.035156 C 51.894531 80.386719 53.269531 79.03125 54.980469 79.03125 C 56.6875 79.03125 58.066406 80.386719 58.066406 82.035156 Z M 25.988281 21.222656 C 25.988281 22.011719 25.34375 22.648438 24.53125 22.648438 C 23.730469 22.648438 23.074219 22.011719 23.074219 21.222656 C 23.074219 20.441406 23.730469 19.804688 24.53125 19.804688 C 25.34375 19.804688 25.988281 20.441406 25.988281 21.222656 Z M 30.992188 21.222656 C 30.992188 22.011719 30.347656 22.648438 29.535156 22.648438 C 28.734375 22.648438 28.078125 22.011719 28.078125 21.222656 C 28.078125 20.441406 28.734375 19.804688 29.535156 19.804688 C 30.347656 19.804688 30.992188 20.441406 30.992188 21.222656 Z M 35.996094 21.222656 C 35.996094 22.011719 35.351562 22.648438 34.539062 22.648438 C 33.738281 22.648438 33.082031 22.011719 33.082031 21.222656 C 33.082031 20.441406 33.738281 19.804688 34.539062 19.804688 C 35.351562 19.804688 35.996094 20.441406 35.996094 21.222656 Z M 35.996094 21.222656 "/>
<path style=" stroke:none;fill-rule:nonzero;fill:rgb(100%,100%,100%);fill-opacity:1;" d="M 50.246094 20.429688 L 86.988281 20.429688 L 86.988281 22.027344 L 50.246094 22.027344 Z M 50.246094 20.429688 "/>
<path style=" stroke:none;fill-rule:nonzero;fill:rgb(24.313725%,74.117647%,65.490196%);fill-opacity:1;" d="M 87.960938 50.0625 L 87.960938 63.523438 L 45.570312 63.523438 L 45.570312 54.023438 L 49.691406 58.03125 L 56.390625 51.5 L 61.792969 56.753906 L 68.703125 50.046875 L 74.285156 55.476562 L 79.902344 50.015625 L 83.957031 53.957031 Z M 87.960938 50.0625 "/>
<path style=" stroke:none;fill-rule:nonzero;fill:rgb(13.333333%,18.823529%,34.901961%);fill-opacity:1;" d="M 39.015625 41.273438 L 21.320312 41.273438 L 21.320312 64.320312 L 39.015625 64.320312 Z M 37.375 62.722656 L 22.960938 62.722656 L 22.960938 42.871094 L 37.375 42.871094 Z M 88.746094 41.273438 L 44.746094 41.273438 L 44.746094 64.320312 L 88.78125 64.320312 L 88.78125 48.140625 L 88.746094 48.175781 Z M 46.390625 42.871094 L 87.105469 42.871094 L 87.105469 49.769531 L 83.953125 52.835938 L 79.898438 48.875 L 74.28125 54.339844 L 68.699219 48.925781 L 61.789062 55.632812 L 56.386719 50.363281 L 49.6875 56.894531 L 46.390625 53.699219 Z M 46.390625 62.722656 L 46.390625 55.953125 L 49.6875 59.160156 L 56.386719 52.628906 L 61.789062 57.882812 L 68.699219 51.175781 L 74.28125 56.605469 L 79.898438 51.144531 L 83.953125 55.089844 L 87.105469 52.023438 L 87.105469 62.722656 Z M 88.746094 28.753906 L 21.320312 28.753906 L 21.320312 37.921875 L 88.746094 37.921875 Z M 87.105469 36.324219 L 22.960938 36.324219 L 22.960938 30.351562 L 87.105469 30.351562 Z M 87.105469 36.324219 "/>
<path style=" stroke:none;fill-rule:nonzero;fill:rgb(13.333333%,18.823529%,34.901961%);fill-opacity:1;" d="M 16.394531 69.109375 L 93.671875 69.109375 C 93.671875 49.597656 93.671875 35.699219 93.671875 16.886719 L 16.394531 16.886719 C 16.394531 35.867188 16.394531 49.5625 16.394531 69.109375 Z M 92.03125 67.515625 L 18.035156 67.515625 L 18.035156 25.558594 L 92.03125 25.558594 Z M 18.035156 18.484375 L 92.03125 18.484375 L 92.03125 23.964844 L 18.035156 23.964844 Z M 18.035156 18.484375 "/>
<path style=" stroke:none;fill-rule:nonzero;fill:rgb(13.333333%,18.823529%,34.901961%);fill-opacity:1;" d="M 99.84375 2.515625 L 10.21875 2.515625 C 5.476562 2.515625 1.617188 6.269531 1.617188 10.882812 C 1.605469 25.359375 1.652344 -26.144531 1.550781 81.933594 C 1.550781 85.402344 4.277344 88.257812 7.757812 88.5625 C 7.988281 88.578125 8.21875 88.59375 8.445312 88.59375 L 43.105469 88.59375 L 43.105469 95.445312 L 35.898438 95.445312 L 32.402344 104.484375 L 77.550781 104.484375 L 74.070312 95.445312 L 66.84375 95.445312 L 66.84375 88.59375 L 101.617188 88.59375 C 101.832031 88.59375 102.046875 88.578125 102.257812 88.5625 C 105.722656 88.257812 108.449219 85.402344 108.449219 81.949219 L 108.449219 10.882812 C 108.449219 6.269531 104.589844 2.515625 99.84375 2.515625 Z M 3.257812 10.882812 C 3.257812 7.148438 6.378906 4.113281 10.21875 4.113281 L 99.84375 4.113281 C 103.6875 4.113281 106.808594 7.148438 106.808594 10.882812 L 106.808594 75.5 L 101.882812 75.5 L 101.882812 10.804688 C 101.882812 9.75 100.960938 8.902344 99.84375 8.902344 L 10.21875 8.902344 C 9.105469 8.902344 8.183594 9.75 8.183594 10.804688 L 8.183594 75.5 L 3.257812 75.5 Z M 100.238281 75.5 L 9.824219 75.5 L 9.824219 10.804688 C 9.824219 10.628906 10.007812 10.5 10.21875 10.5 L 99.84375 10.5 C 100.058594 10.5 100.238281 10.628906 100.238281 10.804688 Z M 72.9375 97.042969 L 75.1875 102.886719 L 34.765625 102.886719 L 37.03125 97.042969 C 54.191406 97.042969 56.839844 97.042969 72.9375 97.042969 Z M 65.203125 95.445312 L 44.746094 95.445312 L 44.746094 88.59375 L 65.203125 88.59375 Z M 101.617188 86.996094 C 82.265625 86.996094 28.878906 86.996094 8.445312 86.996094 C 8.265625 86.996094 8.085938 86.980469 7.921875 86.964844 C 5.3125 86.710938 3.257812 84.554688 3.257812 81.949219 L 3.257812 77.097656 C 34.03125 77.097656 76.632812 77.097656 106.757812 77.097656 L 106.757812 81.933594 C 106.757812 84.554688 104.707031 86.710938 102.078125 86.964844 C 101.929688 86.996094 101.78125 86.996094 101.617188 86.996094 Z M 101.617188 86.996094 "/>
<path style=" stroke:none;fill-rule:nonzero;fill:rgb(13.333333%,18.823529%,34.901961%);fill-opacity:1;" d="M 30.355469 55.851562 L 32.132812 58.179688 L 34.597656 56.382812 L 32.820312 54.070312 L 34.542969 53.351562 L 27.746094 49.949219 L 29.140625 57.261719 Z M 30.355469 55.851562 "/>
</g>
</svg>
